<?xml version="1.0" encoding="utf-8"?>
<!-- Generator: Adobe Illustrator 25.0.0, SVG Export Plug-In . SVG Version: 6.00 Build 0)  -->
<svg version="1.0" xmlns="http://www.w3.org/2000/svg" xmlns:xlink="http://www.w3.org/1999/xlink" x="0px" y="0px"
	 viewBox="0 0 500 500" style="enable-background:new 0 0 500 500;" xml:space="preserve">
<style type="text/css">
	.st0{fill:#EBEBEB;}
	.st1{fill:#F5F5F5;}
	.st2{fill:#E0E0E0;}
	.st3{fill:#E6E6E6;}
	.st4{display:none;}
	.st5{display:inline;}
	.st6{fill:#407BFF;}
	.st7{opacity:0.9;fill:#FFFFFF;}
	.st8{fill:#263238;}
	.st9{opacity:0.4;fill:#FFFFFF;}
	.st10{opacity:0.2;fill:#FFFFFF;}
	.st11{opacity:0.2;enable-background:new    ;}
	.st12{opacity:0.1;fill:#FFFFFF;}
	.st13{fill:#FFFFFF;}
	.st14{opacity:0.8;fill:#FFFFFF;}
	.st15{opacity:0.6;fill:#FFFFFF;}
	.st16{opacity:0.6;fill:#FFFFFF;enable-background:new    ;}
	.st17{opacity:0.8;fill:#263238;}
	.st18{opacity:0.6;fill:#263238;}
	.st19{opacity:0.4;fill:#263238;}
	.st20{opacity:0.2;fill:#263238;}
	.st21{opacity:0.7;fill:#FFFFFF;enable-background:new    ;}
	.st22{opacity:0.8;fill:#407BFF;}
	.st23{opacity:0.6;fill:#407BFF;}
	.st24{opacity:0.4;fill:#407BFF;}
	.st25{opacity:0.2;fill:#407BFF;}
	.st26{fill:#EBB376;}
	.st27{opacity:0.3;fill:#FFFFFF;enable-background:new    ;}
	.st28{opacity:0.15;enable-background:new    ;}
	.st29{opacity:0.3;enable-background:new    ;}
	.st30{fill:#E4897B;}
	.st31{fill:#DE5753;}
	.st32{opacity:0.2;fill:#FFFFFF;enable-background:new    ;}
	.st33{opacity:0.4;fill:#FFFFFF;enable-background:new    ;}
	.st34{opacity:0.3;fill:#FFFFFF;}
</style>
<g id="Background_Complete">
	<g>
		<rect y="382.4" class="st0" width="500" height="0.25"/>
		<rect x="416.78" y="398.49" class="st0" width="33.12" height="0.25"/>
		<rect x="322.53" y="401.21" class="st0" width="8.69" height="0.25"/>
		<rect x="396.59" y="389.21" class="st0" width="19.19" height="0.25"/>
		<rect x="52.46" y="390.89" class="st0" width="43.19" height="0.25"/>
		<rect x="104.56" y="390.89" class="st0" width="6.33" height="0.25"/>
		<rect x="131.47" y="395.11" class="st0" width="93.68" height="0.25"/>
		<path class="st0" d="M237.01,337.8H43.92c-3.15,0-5.71-2.56-5.71-5.71V60.66c0-3.15,2.56-5.71,5.71-5.71h193.1
			c3.15,0,5.71,2.56,5.71,5.71v271.43C242.72,335.24,240.16,337.8,237.01,337.8z M43.92,55.2c-3.01,0-5.46,2.45-5.46,5.46v271.43
			c0,3.01,2.45,5.46,5.46,5.46h193.1c3.01,0,5.46-2.45,5.46-5.46V60.66c0-3.01-2.45-5.46-5.46-5.46H43.92z"/>
		<path class="st0" d="M453.31,337.8h-193.1c-3.15,0-5.71-2.56-5.71-5.71V60.66c0-3.15,2.56-5.71,5.71-5.71h193.1
			c3.15,0,5.71,2.56,5.71,5.71v271.43C459.02,335.24,456.46,337.8,453.31,337.8z M260.21,55.2c-3.01,0-5.46,2.45-5.46,5.46v271.43
			c0,3.01,2.45,5.46,5.46,5.46h193.1c3.01,0,5.46-2.45,5.46-5.46V60.66c0-3.01-2.45-5.46-5.46-5.46H260.21z"/>
	</g>
	<g>
		<g>
			<rect x="200.95" y="84.62" class="st1" width="90.9" height="113.34"/>
			<path class="st2" d="M217.6,99.41c11.45-8.2,11.48-12.7,19.68-3.51c8.2,9.19,13.91,20.31,28.79,14.51
				c14.88-5.8,23.17,9.22,13.64,23.03c-9.53,13.81-6.03,32.68,0,41.71c6.03,9.03,3.22,21.2-6.4,14.4c-9.62-6.8-22.65-6.8-31.95-2.01
				c-9.3,4.79-20.21,16.67-19.37-4.08c0.84-20.75-9.85-14.25-12.59-24.74c-2.75-10.49,10.52-3.84,8.2-26.82
				C215.28,108.92,207.45,106.69,217.6,99.41z"/>
			<path class="st0" d="M273.6,95.9c-13.92-6.17-19.82-9.21-26.34,4.54c-6.52,13.75-19.66,32.05-29.14,26.98
				c-9.49-5.07-6.61,18.02,11.6,12.23c18.22-5.79,22.59-2.87,29.03,11.01c6.44,13.88,4.88,21.59,12.61,16.54
				c7.73-5.06-2.93-20.64,1.44-33.22C277.18,121.39,286.1,101.44,273.6,95.9z"/>
			<path class="st0" d="M224.82,166.09c5.62-10.76-1.96-27.98,12.68-20.76s8.53,34.99,21.15,28.43
				c12.61-6.57,4.08-25.58,14.84-26.51c10.77-0.93,9.6,41.43-6.11,42.3c-15.71,0.87-29.26-13.09-33.99-8.27
				c-4.73,4.82-17.93,15.84-20.68,2.18C209.96,169.8,220.5,174.35,224.82,166.09z"/>
		</g>
		<g>
			
				<rect x="316.28" y="82.04" transform="matrix(-1 -1.224647e-16 1.224647e-16 -1 720.8945 282.5707)" class="st1" width="88.34" height="118.49"/>
			<path class="st3" d="M328.75,93.94c2.55-4.74,65.77,19.08,64.06,24.23c-1.7,5.15-49.39,9.42-53.59,16.39
				c-4.2,6.97,50.51,16.26,49.52,20.96c-0.99,4.7-52.76,0.56-53.72,5.27c-0.96,4.71,54.54,12.89,50.83,19.96
				c-3.7,7.07-49.8,2.01-54.87-9.98c-5.07-11.99,22.84-11.18,23.63-19.13c0.79-7.96-29.74-9.49-25.87-22.26
				c3.88-12.77,44-3.56,40.26-14.7C365.27,103.54,323.91,102.91,328.75,93.94z"/>
			<path class="st0" d="M377.1,94.58c8.25-1.93,17.78,12.81,7.98,9.51C375.29,100.79,368.85,96.51,377.1,94.58z"/>
			<path class="st0" d="M339.87,113.23c0.41-4.11-11.76-3.38-11.89,0C327.83,116.61,339.44,117.52,339.87,113.23z"/>
			<path class="st0" d="M385.86,137.97c-4.46-7.35-17.56-4.17-17.42-0.78C368.58,140.58,390.67,145.91,385.86,137.97z"/>
		</g>
		<g>
			<rect x="89.47" y="82.04" class="st1" width="88.34" height="118.49"/>
			<path class="st0" d="M105.91,168.55c0,0-8.34-64.53-3.19-72.28c5.15-7.75,15.73,20.19,17.63,13.65c1.9-6.54,3.1-20.47,9.93-19.25
				s4.43,13.23,9.71,13.69c5.27,0.46,11.73-15.38,14.01-13.69c2.28,1.69,0.37,12.75,4.68,13.69c4.31,0.94,3.12-10.75,8.75-7.06
				c5.63,3.69-3.26,71.25-3.26,71.25s3.37-53.18-2.5-53.18c-5.87,0-8.26,16.52-12.1,8.74c-3.83-7.78,0.4-13.4-2.2-14.18
				c-2.59-0.79-7.99,13.14-12.01,11.21c-4.01-1.93-2.33-9.94-5.09-11.21c-2.76-1.27,7.73,18.95-7.58,14.35
				c-15.31-4.59-12.85-17.26-15.04-12.6C105.47,116.33,105.91,168.55,105.91,168.55z"/>
			<path class="st0" d="M151.22,150.92c-6.01-7.92-9.77,7.42-16.58,12.46c-6.81,5.05-4.38-18.64-13.14-13.09
				c-8.76,5.55-2.52,19.88-8.34,24.22c-5.82,4.34-4.84,19.86,1.68,11.92c6.52-7.94,6.4-28.9,11.31-15.54
				c4.91,13.35,7.06,26.39,11.38,14.84c4.32-11.55,0.52-29.18,6.92-19.11c6.39,10.07,6.53,23.65,12.93,18.12
				c6.4-5.53-3.82-9.09-3.56-15.22C154.07,163.4,153.75,154.27,151.22,150.92z"/>
		</g>
		<g>
			<g>
				<path class="st0" d="M411.56,348.59c0.15-1.02,3.65-25.17-3.36-33.51c-1.55-1.85-3.51-2.81-5.82-2.87
					c-14.15-0.33-16.09,11.04-16.11,11.15l1.67,0.26c0.06-0.41,1.74-10.03,14.4-9.72c1.83,0.04,3.33,0.79,4.57,2.26
					c6.53,7.76,3.02,31.93,2.98,32.17L411.56,348.59z"/>
			</g>
			<g>
				<path class="st0" d="M412.42,347.49l1.69-0.05c-0.01-0.22-0.56-22.25,10.29-26.8c10.64-4.46,15.42,4.71,15.62,5.1l1.51-0.76
					c-0.06-0.11-5.67-10.98-17.78-5.9C411.82,324.08,412.39,346.53,412.42,347.49z"/>
			</g>
			<g>
				<path class="st0" d="M412.37,349.22c0-0.35,0.1-35.19,6.89-45.38c6.52-9.78,17.04-5.18,17.49-4.98l0.7-1.54
					c-0.12-0.06-12.26-5.41-19.59,5.58c-7.07,10.61-7.18,44.86-7.18,46.31L412.37,349.22z"/>
			</g>
			<path class="st2" d="M400.35,313.05c0,0,6.18,2.28,4.34,7.66c-1.84,5.38-21.38,14.23-21.38,14.23s-8.18-7.5-0.67-19.7
				C390.17,303.04,400.19,309.2,400.35,313.05z"/>
			<path class="st2" d="M419.57,302c0,0-4.39-0.47-4.03-3.14c0.35-2.67,17.05-9.55,26.91,1.57c0,0-6.31,10.84-15.43,10.98
				C417.89,311.55,419.57,302,419.57,302z"/>
			<path class="st2" d="M424.07,319.86c0,0-3.03-2.44,0.24-3.64c3.27-1.19,19.3-0.85,19.47,15.03c0,0-18.67,3.1-20.98-2.95
				C420.48,322.25,424.07,319.86,424.07,319.86z"/>
			<polygon class="st0" points="397.03,380.94 426.01,380.94 429.14,349.22 393.91,349.22 			"/>
			
				<rect x="392.36" y="345.72" transform="matrix(-1 -1.224647e-16 1.224647e-16 -1 823.0455 698.4343)" class="st2" width="38.32" height="7"/>
		</g>
		<g>
			<path class="st2" d="M93.13,352.22c0,0,5.65-12.33-0.81-24.48c-6.45-12.15-8.33-15.01-4.21-17.5c4.11-2.49,6,9.72,6,9.72
				s3.47-8.4,0.6-17.19c-2.86-8.79-4.66-23.11-0.75-24.64c3.91-1.54,0.75,17.86,4.14,24.47c0,0,2.85-7.36,3.32-14.42
				c0.47-7.06-0.26-18.33,2.82-21.23c3.09-2.89,5.07-0.89,2.03,14.69c-3.04,15.58-3.01,28.25-3.01,28.25s6.7-20.44,11.2-21.04
				c4.5-0.6,4.49,6.02,0.64,11.76c-3.85,5.74-11.28,16.03-12.5,21.32c0,0,7.36-15.38,13.98-10.67c6.62,4.71-5.76,14-11.28,17.36
				c-5.52,3.36-9.35,24.4-9.35,24.4L93.13,352.22z"/>
			<path class="st0" d="M97.59,357.27c0,0-5.5-12.41,1.1-24.46c6.6-12.05,8.5-14.89,4.42-17.44c-4.08-2.55-6.12,9.63-6.12,9.63
				s-3.37-8.45-0.4-17.2c2.97-8.75,4.94-23.04,1.04-24.63c-3.89-1.59-0.96,17.85-4.43,24.41c0,0-2.76-7.4-3.15-14.47
				c-0.38-7.07,0.48-18.33-2.57-21.27c-3.05-2.94-5.06-0.97-2.21,14.66c2.85,15.63,2.67,28.29,2.67,28.29s-6.46-20.54-10.95-21.2
				c-4.49-0.66-4.57,5.96-0.78,11.75c3.78,5.8,11.08,16.19,12.24,21.5c0,0-7.17-15.49-13.85-10.87
				c-6.67,4.62,5.59,14.09,11.07,17.53c5.48,3.44,9.06,24.54,9.06,24.54L97.59,357.27z"/>
			<g>
				<polygon class="st0" points="72.22,348.42 117.67,348.42 113.99,380.94 75.9,380.94 				"/>
			</g>
		</g>
	</g>
</g>
<g id="Background_Simple" class="st4">
	<g class="st5">
		<path class="st6" d="M70.82,308.44c5.15,16.69,15.1,37.75,32.98,43.75c26.47,8.88,41.43-21.88,47.76-42.01
			c9.24-29.41,15.48-59.97,29.02-87.87c10.68-22.01,29.95-47.41,56.51-49.8c14.29-1.28,22.56,7.93,27.07,20.55
			c5.58,15.61,8.12,32.11,12.18,48.18c8.03,31.78,32.22,61.15,63.85,71.39c17.96,5.82,37.15,5.12,54.1-3.62
			c73.25-37.76,44.45-150.49-3.13-195.52c-76.93-72.81-202.13-51.12-272.32,19.69c-28.08,28.33-47.18,66.05-52.56,105.63
			C63.25,261,63.93,286.12,70.82,308.44z"/>
		<path class="st7" d="M70.82,308.44c5.15,16.69,15.1,37.75,32.98,43.75c26.47,8.88,41.43-21.88,47.76-42.01
			c9.24-29.41,15.48-59.97,29.02-87.87c10.68-22.01,29.95-47.41,56.51-49.8c14.29-1.28,22.56,7.93,27.07,20.55
			c5.58,15.61,8.12,32.11,12.18,48.18c8.03,31.78,32.22,61.15,63.85,71.39c17.96,5.82,37.15,5.12,54.1-3.62
			c73.25-37.76,44.45-150.49-3.13-195.52c-76.93-72.81-202.13-51.12-272.32,19.69c-28.08,28.33-47.18,66.05-52.56,105.63
			C63.25,261,63.93,286.12,70.82,308.44z"/>
	</g>
</g>
<g id="Shadow_1_">
	<ellipse id="_x3C_Path_x3E__359_" class="st1" cx="250" cy="416.24" rx="193.89" ry="11.32"/>
</g>
<g id="Device">
	<g>
		<g>
			<path class="st8" d="M240.91,399.58c0,1.54-0.36,2.97-0.98,4.15c-0.62,1.19-1.5,2.12-2.53,2.67c0,0-3.75,2.25-4.26,2.47
				l-0.04,0.02v-0.01c-0.69,0.29-1.43,0.45-2.19,0.45c-4.08,0-7.38-4.31-7.38-9.63c0-2.51,0.74-4.78,1.95-6.5l-2.37-13.2
				l-6.14-34.19l-13.17-73.28h9.84l13.17,73.28l6.14,34.19l2.07,11.51l2.06,1.1C239.31,393.6,240.91,396.34,240.91,399.58z"/>
			<path class="st9" d="M240.91,399.58c0,1.54-0.36,2.97-0.98,4.15c-0.62,1.19-1.5,2.12-2.53,2.67c0,0-3.75,2.25-4.26,2.47
				l-0.04,0.02v-0.01c-0.69,0.29-1.43,0.45-2.19,0.45c-4.08,0-7.38-4.31-7.38-9.63c0-2.51,0.74-4.78,1.95-6.5l-2.37-13.2
				l-6.14-34.19l-13.17-73.28h9.84l13.17,73.28l6.14,34.19l2.07,11.51l2.06,1.1C239.31,393.6,240.91,396.34,240.91,399.58z"/>
			<path class="st10" d="M240.91,399.58c0,4.07-2.53,7.38-5.66,7.38c-3.12,0-5.66-3.3-5.66-7.38c0-4.07,2.53-7.38,5.66-7.38
				C238.38,392.2,240.91,395.5,240.91,399.58z"/>
			<polygon class="st11" points="232.95,380 223.11,380 216.97,345.81 203.8,272.53 213.64,272.53 226.81,345.81 			"/>
		</g>
		<g>
			<rect x="367.31" y="294.8" class="st8" width="44.07" height="12.6"/>
			<path class="st8" d="M407.52,333.56l13.91-69.68c0.3-1.49-0.84-2.88-2.36-2.88h-4.23c-1.7,0-3.17,1.2-3.5,2.87l-13.91,69.68
				c-0.3,1.49,0.84,2.88,2.36,2.88h4.24C405.72,336.43,407.18,335.23,407.52,333.56z"/>
			<path class="st8" d="M418.65,291.66c-1.91,0-6.62,0-8.54,0c-2.56,0-4.64,4.04-4.64,9.02c0,4.98,2.08,9.02,4.64,9.02
				c1.92,0,6.62,0,8.54,0c2.56,0,4.64-4.04,4.64-9.02C423.29,295.7,421.21,291.66,418.65,291.66z"/>
			<path class="st10" d="M422.72,300.68c0,3.71-1.48,6.72-3.3,6.72c-1.82,0-3.3-3.01-3.3-6.72c0-3.71,1.48-6.72,3.3-6.72
				C421.25,293.96,422.72,296.97,422.72,300.68z"/>
			<path class="st10" d="M407.52,333.56l13.91-69.68c0.3-1.49-0.84-2.88-2.36-2.88h-4.23c-1.7,0-3.17,1.2-3.5,2.87l-13.91,69.68
				c-0.3,1.49,0.84,2.88,2.36,2.88h4.24C405.72,336.43,407.18,335.23,407.52,333.56z"/>
		</g>
		<polygon class="st8" points="406.91,391.12 406.91,413.36 180.69,413.36 180.69,407.17 227.79,407.17 235,391.12 		"/>
		<polygon class="st10" points="406.91,391.12 406.91,413.36 320.69,413.36 320.69,407.17 367.79,407.17 375,391.12 		"/>
		<g>
			<path class="st8" d="M400.91,399.58c0,1.54-0.36,2.97-0.98,4.15c-0.62,1.19-1.5,2.12-2.53,2.67c0,0-3.75,2.25-4.26,2.47
				l-0.04,0.02v-0.01c-0.69,0.29-1.43,0.45-2.19,0.45c-4.08,0-7.38-4.31-7.38-9.63c0-2.51,0.74-4.78,1.95-6.5l-2.37-13.2
				l-6.14-34.19l-13.17-73.28h9.84l13.17,73.28l6.14,34.19l2.07,11.51l2.06,1.1C399.31,393.6,400.91,396.34,400.91,399.58z"/>
			<path class="st9" d="M400.91,399.58c0,1.54-0.36,2.97-0.98,4.15c-0.62,1.19-1.5,2.12-2.53,2.67c0,0-3.75,2.25-4.26,2.47
				l-0.04,0.02v-0.01c-0.69,0.29-1.43,0.45-2.19,0.45c-4.08,0-7.38-4.31-7.38-9.63c0-2.51,0.74-4.78,1.95-6.5l-2.37-13.2
				l-6.14-34.19l-13.17-73.28h9.84l13.17,73.28l6.14,34.19l2.07,11.51l2.06,1.1C399.31,393.6,400.91,396.34,400.91,399.58z"/>
			<path class="st10" d="M400.91,399.58c0,4.07-2.53,7.38-5.66,7.38c-3.12,0-5.66-3.3-5.66-7.38c0-4.07,2.53-7.38,5.66-7.38
				C398.38,392.2,400.91,395.5,400.91,399.58z"/>
			<polygon class="st11" points="392.95,380 383.11,380 376.97,345.81 363.8,272.53 373.64,272.53 386.81,345.81 			"/>
		</g>
		<g>
			<path class="st8" d="M376.73,374.08H167.56c-4.44,0-7.3-3.64-6.41-8.14l28.4-142.28c0.9-4.5,5.22-8.14,9.66-8.14h209.17
				c4.44,0,7.3,3.64,6.41,8.14l-28.4,142.28C385.49,370.43,381.17,374.08,376.73,374.08z"/>
			<path class="st12" d="M376.73,374.08H167.56c-4.44,0-7.3-3.64-6.41-8.14l28.4-142.28c0.9-4.5,5.22-8.14,9.66-8.14h209.17
				c4.44,0,7.3,3.64,6.41,8.14l-28.4,142.28C385.49,370.43,381.17,374.08,376.73,374.08z"/>
			<polygon class="st6" points="366.05,350.67 187.59,350.67 211.92,228.8 390.37,228.8 			"/>
			<path class="st10" d="M389.37,313.84h-7.91c-1.86,0-3.06-1.53-2.68-3.41l6.24-31.27c0.38-1.88,2.19-3.41,4.04-3.41h7.91
				c1.86,0,3.06,1.53,2.68,3.41l-6.24,31.27C393.04,312.32,391.23,313.84,389.37,313.84z"/>
			<path class="st11" d="M396.76,285.07c-0.63,3.13-3.64,5.67-6.73,5.67c-3.09,0-5.09-2.54-4.46-5.67c0.63-3.13,3.64-5.67,6.73-5.67
				C395.38,279.4,397.38,281.94,396.76,285.07z"/>
			<path class="st11" d="M388.55,309.73h-4.62c-0.69,0-1.14-0.57-1-1.27l3.15-15.77c0.14-0.7,0.81-1.27,1.51-1.27h4.62
				c0.69,0,1.14,0.57,1,1.27l-3.15,15.77C389.91,309.16,389.24,309.73,388.55,309.73z"/>
		</g>
		<path class="st13" d="M215.75,284.26c0,0,15.49-20.24,25.16-24.79c9.67-4.55,8.09,21.16,14.42,27.89
			c6.33,6.73,20.18-21.36,29.67-23.74c9.49-2.37,3.71,34.94,12.14,43.78c8.43,8.84,67.94-52.48,67.94-52.48l-3.26,7.52l8.33-8.7
			l-8.33,12.26l5.48-4.99c0,0-27.64,32.33-52.4,48.73c-24.76,16.39-28.72-0.95-28.72-7.11c0-6.16,0.14-26.19-3.88-26.86
			c-4.03-0.67-19.85,22.73-27.37,24.68c-7.52,1.95-9.89-9.02-9.89-9.02s2.99,3.71,7.43,3.38c0,0-5.05,0.21-7.03-10.54
			c-1.98-10.75-3.16-19.06-7.52-15.89c-4.35,3.16-17.41,18.99-17.41,18.99l1.84-5.59l-11.33,13.03l9.49-13.03L215.75,284.26z"/>
		<polygon class="st13" points="203.7,345.41 194.2,345.41 195.99,336.45 205.48,336.45 		"/>
		<polygon class="st14" points="214.87,345.41 205.38,345.41 207.17,336.45 216.66,336.45 		"/>
		<polygon class="st15" points="226.05,345.41 216.56,345.41 218.35,336.45 227.84,336.45 		"/>
		<polygon class="st9" points="237.23,345.41 227.74,345.41 229.53,336.45 239.02,336.45 		"/>
		<polygon class="st10" points="248.41,345.41 238.92,345.41 240.71,336.45 250.2,336.45 		"/>
	</g>
</g>
<g id="Character_2">
	<g>
		<g>
			<g>
				
					<rect x="245.36" y="178.38" transform="matrix(0.9669 -0.2553 0.2553 0.9669 -38.6458 76.6734)" class="st6" width="61.35" height="17.64"/>
				
					<rect x="245.36" y="178.38" transform="matrix(0.9669 -0.2553 0.2553 0.9669 -38.6458 76.6734)" class="st16" width="61.35" height="17.64"/>
				
					<rect x="247.68" y="186.38" transform="matrix(0.9669 -0.2553 0.2553 0.9669 -40.9506 70.9077)" class="st8" width="9.98" height="13.64"/>
				
					<rect x="258.07" y="183.64" transform="matrix(0.9669 -0.2553 0.2553 0.9669 -39.9047 73.4666)" class="st17" width="9.98" height="13.64"/>
				
					<rect x="268.46" y="180.89" transform="matrix(0.9669 -0.2553 0.2553 0.9669 -38.8611 76.0313)" class="st18" width="9.98" height="13.64"/>
				
					<rect x="278.85" y="178.15" transform="matrix(0.9669 -0.2553 0.2553 0.9669 -37.8163 78.5932)" class="st19" width="9.98" height="13.64"/>
				
					<rect x="289.24" y="175.41" transform="matrix(0.9669 -0.2553 0.2553 0.9669 -36.7715 81.155)" class="st20" width="9.98" height="13.64"/>
			</g>
			<g>
				<rect x="246.67" y="170.07" class="st6" width="61.35" height="17.64"/>
				<rect x="246.67" y="170.07" class="st21" width="61.35" height="17.64"/>
				<rect x="248.24" y="171.9" class="st6" width="9.98" height="13.64"/>
				<rect x="258.99" y="171.9" class="st22" width="9.98" height="13.64"/>
				<rect x="269.73" y="171.9" class="st23" width="9.98" height="13.64"/>
				<rect x="280.48" y="171.9" class="st24" width="9.98" height="13.64"/>
				<rect x="291.23" y="171.9" class="st25" width="9.98" height="13.64"/>
			</g>
			<circle class="st8" cx="305.54" cy="185.54" r="1.09"/>
			<g>
				<g>
					<path class="st8" d="M309.64,190.39c-0.07,0.97-0.68,1.54-1.62,1.55c0,0,0,0-0.01,0c-1.71,0-2.81-1.73-3.43-3.15l1.01-0.27
						c0.54,1.18,1.36,2.39,2.42,2.39c0.01,0,0.01,0,0.01,0c0.33,0,0.56-0.1,0.59-0.61c0.05-0.63-0.26-1.54-0.77-2.37
						c-0.59-0.93-1.45-1.74-2.38-1.89c-0.29-0.04-0.47-0.31-0.42-0.59c0.04-0.28,0.3-0.47,0.59-0.42c0.65,0.11,1.26,0.42,1.79,0.86
						C308.84,187.06,309.74,189.09,309.64,190.39z"/>
				</g>
				<g class="st11">
					<path class="st13" d="M309.64,190.39c-0.07,0.97-0.68,1.54-1.62,1.55c0,0,0,0-0.01,0c-1.71,0-2.81-1.73-3.43-3.15l1.01-0.27
						c0.54,1.18,1.36,2.39,2.42,2.39c0.01,0,0.01,0,0.01,0c0.33,0,0.56-0.1,0.59-0.61c0.05-0.63-0.26-1.54-0.77-2.37
						c-0.59-0.93-1.45-1.74-2.38-1.89c-0.29-0.04-0.47-0.31-0.42-0.59c0.04-0.28,0.3-0.47,0.59-0.42c0.65,0.11,1.26,0.42,1.79,0.86
						C308.84,187.06,309.74,189.09,309.64,190.39z"/>
				</g>
			</g>
		</g>
		<path class="st26" d="M366.53,189.15c4.58,10.12,7.67,22.32,3.62,26.37c-4.05,4.05-18.07-10.71-18.07-10.71l3.15-2.13
			c0,0,9.84,5.19,10.36,4.84c0.51-0.35-3.76-14.94-3.76-14.94L366.53,189.15z"/>
		<path class="st26" d="M298.88,191.6c0,0-1.21-0.97-2.07-1.87c-0.85-0.9-10.05-0.81-10.46,0.18c-0.41,0.99,1.33,5.51,2.86,5.99
			c1.53,0.47,8.05-0.22,9.09-0.87C299.34,194.38,298.88,191.6,298.88,191.6z"/>
		<path class="st26" d="M338.3,393.9l-5.34,0.09c-5.43-25.48-9.26-57.02-11.65-80.81c-0.37-3.73-0.71-7.26-1.01-10.55
			c-0.14-1.57-0.28-3.07-0.4-4.52c-0.64-7.15-1.08-12.82-1.34-16.33c-0.19-2.56-0.29-3.96-0.29-3.96h19.29l-0.18,4.91l-0.6,16.22
			l-0.06,1.85l-0.4,10.71l-0.67,18.24C342.25,355.42,338.3,393.9,338.3,393.9z"/>
		<path class="st26" d="M381.57,392.53l-5.25,0.99c-10.52-26.29-20.4-59.97-26.83-83.49c-0.99-3.65-1.91-7.06-2.73-10.15
			c-0.04-0.16-0.07-0.31-0.12-0.46c-1.62-6.14-2.87-11.03-3.65-14.13c-0.6-2.43-0.93-3.76-0.93-3.76l19.02-3.28l1.08,7.99
			l1.59,11.75l0.31,2.3l1.08,8l2.89,21.47C378.92,353.94,381.57,392.53,381.57,392.53z"/>
		<path class="st11" d="M363.75,297.99l-16.99,1.9c-0.04-0.16-0.07-0.31-0.12-0.46c-1.62-6.14-2.87-11.03-3.65-14.13l19.16,0.95
			L363.75,297.99z"/>
		<path class="st11" d="M337.37,282.71l-0.6,16.22l-0.06,1.85l-16.41,1.82c-0.14-1.57-0.28-3.07-0.4-4.52
			c-0.64-7.15-1.08-12.82-1.34-16.33L337.37,282.71z"/>
		<path class="st6" d="M322.53,411.61c0.99-0.8,2.13-1.42,3.34-1.82l0,0c0,0,3.63-3.61,5.38-14.46l4.76-1.24
			c1.65-0.4,3.38,0.27,4.33,1.69c0.13,0.19,0.23,0.4,0.3,0.63c0.24,1.16,0.41,2.34,0.51,3.53c0.48,3.67,0.07,11.92,0.07,11.92h-0.86
			l-0.34-7.48c-0.13-2.54-2.07,0.44-2.63,3.18c-0.56,2.74-1.74,5.65-7.31,5.78C323.59,413.46,320.89,413.2,322.53,411.61z"/>
		<path class="st6" d="M340.51,395.87c0.31-2.54,0.41-6.96,0.41-6.96l-10.57,1.17c0,0,1.28,5.02,0.22,8.79
			C335.9,397.48,340.51,395.87,340.51,395.87z"/>
		<path class="st6" d="M365.55,411.61c0.99-0.8,2.13-1.42,3.34-1.82l0,0c0,0,3.63-3.61,5.38-14.46l4.76-1.24
			c1.65-0.4,3.38,0.27,4.33,1.69c0.13,0.19,0.23,0.4,0.3,0.63c0.25,1.16,0.41,2.34,0.51,3.53c0.48,3.67,0.07,11.92,0.07,11.92h-0.86
			l-0.34-7.48c-0.13-2.54-2.07,0.44-2.63,3.18c-0.56,2.74-1.74,5.65-7.31,5.78C366.61,413.46,363.91,413.2,365.55,411.61z"/>
		<path class="st6" d="M383.53,395.87c0.31-2.54,0.41-6.96,0.41-6.96l-10.57,1.17c0,0,1.28,5.02,0.22,8.79
			C378.92,397.48,383.53,395.87,383.53,395.87z"/>
		<g>
			<path class="st26" d="M352.33,168.93c-0.08,0.07-0.17,0.14-0.25,0.19c-1.18,0.84-2.54,1.65-4.08,2c-4.32,1-7.27,0.41-9.19-1.55
				c-0.01,0-0.01,0-0.01,0c-2.7-2.93-3.37-8.12-2.99-14.39c0.17-2.87,0.58-5.37,1.37-7.32c0.01-0.02,0.01-0.09,0.02-0.11
				c0.04-0.08,0.07-0.19,0.11-0.27c1.18-2.72,3.15-4.48,6.28-5.22c1.08-0.25,2.32-0.4,3.7-0.42
				C359.5,141.72,361.69,161.95,352.33,168.93z"/>
			<path class="st11" d="M352.08,169.11c-1.18,0.84-2.54,1.48-4.08,1.83c-4.32,1-7.27,0.26-9.19-1.72c2.12,0.47,4.97,0.64,7.75-0.64
				C348.3,167.78,350.24,168.19,352.08,169.11z"/>
			<path class="st26" d="M353.32,180.14c0.75,3.48-3.75,4.89-3.75,4.89c-7.37-3.15-8.73-7.06-8.73-7.06
				c6.15-3.2,4.37-12.27,4.37-12.27l1.25,0.62l8.78,1.72c0,0-2.44,4.67-2.76,5.74c0,0.01-0.01,0.02-0.01,0.03
				C350.81,179.37,353.32,180.14,353.32,180.14z"/>
			<path class="st8" d="M337.17,147.78c0,0-0.67,8.57,7.44,12.24c0,0,3.48,8.9,8.62,9.02c6.99,0.17,13.16-9.78,10.74-19.92
				C360.82,135.98,340.9,134.91,337.17,147.78z"/>
			<path class="st26" d="M340.5,157.56c0-1.34,1.08-3.58,3.15-3.28c2.15,0.32,3.34,5.61-1.94,6.8
				C340.95,161.25,340.49,160.35,340.5,157.56z"/>
			<path class="st8" d="M352.08,138.68c0,0-8.17-2.07-12.69,1.22c-5.27,3.84-7.27,7.81-1.03,13.97c0,0,13.72-4.45,18.28-3.51
				c4.56,0.94,7.82,2.27,7.82,2.27C365.43,143.57,356.64,136.82,352.08,138.68z"/>
			<path class="st8" d="M340.84,139.07c0.51-1.22,1.56-3.87,4.64-2.41c3.09,1.46,5.37-1.71,7.34-1.19s4.02,2.74,5.31,2.56
				s5.14,0.2,5.37,4.48c0.24,4.28,3.96,4.43,4.35,6.94c0.4,2.51-1.32,3.56,0,5.93c1.32,2.37,3.3,2.33,1.71,5.72
				c-1.58,3.38-3.43,4.26-1.45,7.05c1.98,2.79,0.53,5.43-2.37,6.62c0,0-3.82-3.82-5.67-2.24c-1.85,1.58-5.84,3.67-7.6,1.24
				c-1.76-2.43-4.87-1.51-5.56-0.19c-0.69,1.32-3.96-1.05-6.08-1.05c-2.13,0-3.18,2.35-3.18,2.35s-2.82-0.77-1.95-5.11
				c0.87-4.35,2.79-16.49,1.45-19.92C335.81,146.42,340.84,139.07,340.84,139.07z"/>
		</g>
		<path class="st8" d="M328.87,179.3c0,0,9.75-3.28,24.46,0.72c14.7,4,13.21,9.12,13.21,9.12s-11.1,19.9-12.57,42.45l-31.55-3.07
			C322.41,228.53,318.93,192.84,328.87,179.3z"/>
		<g>
			<path class="st6" d="M321.19,230.57L321.19,230.57l0.63-6.22l33.41,3.36l-0.7,4.87l-0.01,0c12.58,22.28,9.54,47.68,9.54,47.68
				l1.53,12.49c0,0-3.16,1.96-24.32,3.34c-18.61,1.21-23.34-0.72-23.34-0.72C311.33,256.72,316.99,238.32,321.19,230.57z"/>
			<path class="st16" d="M365.58,292.76c0,0-3.15,1.95-24.32,3.33c-18.61,1.22-23.34-0.71-23.34-0.71
				c-0.22-1.28-0.42-2.53-0.61-3.76c-4-25.74-2.39-42,0.35-51.93c1.09-4,2.37-6.97,3.53-9.12l0.23-2.24l0.4-3.97l33.41,3.35
				l-0.7,4.87h-0.01c12.58,22.28,9.54,47.68,9.54,47.68l1.2,9.9L365.58,292.76z"/>
			<g>
				<polygon class="st8" points="335.64,231 320.61,229.81 320.81,225.26 335.98,226.85 				"/>
				<polygon class="st8" points="350.69,232.19 336.72,231.09 337.06,226.96 350.99,228.42 				"/>
				<polygon class="st8" points="352.08,228.53 355.62,228.91 355.17,232.55 351.77,232.28 				"/>
			</g>
			<g>
				<path class="st27" d="M344.02,251.29c-0.07,2.51-0.16,4.41-0.16,4.41l-6.49,5.3l-11.07-4.9c0.18-1.29,0.26-3.17,0.28-5.23
					c0.05-3.75-0.1-8.08-0.2-10.43c-0.05-1.07-0.08-1.73-0.08-1.73l17.56,2.09c0.05,0.37,0.09,0.81,0.12,1.29
					C344.16,244.59,344.11,248.35,344.02,251.29z"/>
				<path class="st27" d="M360.98,255.57l-4.22,4.85l-6.33-4.06c0-1.46-0.1-3.03-0.27-4.59c-0.38-3.81-1.11-7.57-1.53-9.55
					c-0.19-0.89-0.31-1.42-0.31-1.42h9.36c0.09,0.27,0.19,0.54,0.27,0.82c1.04,3.16,1.78,6.51,2.27,9.14
					C360.74,253.58,360.98,255.57,360.98,255.57z"/>
				<path class="st28" d="M344.02,251.29c-0.07,2.51-0.16,4.41-0.16,4.41l-6.49,5.3l-11.07-4.9c0.18-1.29,0.26-3.17,0.28-5.23
					c2.56,0.47,6.99,1.83,10.14,5.82C336.72,256.69,338.9,252.27,344.02,251.29z"/>
				<path class="st28" d="M326.38,240.44c-0.05-1.07-0.08-1.73-0.08-1.73l17.56,2.09c0.05,0.37,0.09,0.81,0.12,1.29L326.38,240.44z"
					/>
				<path class="st28" d="M357.95,241.62l-9.32,0.6c-0.19-0.89-0.31-1.42-0.31-1.42h9.36C357.77,241.07,357.87,241.34,357.95,241.62
					z"/>
				<path class="st28" d="M360.98,255.57l-4.22,4.85l-6.33-4.06c0-1.46-0.1-3.03-0.27-4.59c5.05,1.68,6.6,5.91,6.6,5.91
					s0.1-4.63,3.46-6.92C360.74,253.58,360.98,255.57,360.98,255.57z"/>
			</g>
			<path class="st28" d="M365.58,292.76c0,0-3.15,1.95-24.32,3.33c-18.61,1.22-23.34-0.71-23.34-0.71
				c-0.22-1.28-0.42-2.53-0.61-3.76c0.58,0.03,1.23,0.06,1.94,0.09c-0.94-7.91-3.68-34.84,0.45-49.62c0,0-0.97-0.95-2.04-2.4
				c1.09-4,2.37-6.97,3.53-9.12l0.23-2.24c1.18,0.09,2.04,0.3,2.04,0.3v0.95c0,0-4.91,17.51-4.91,34.85
				c0,12.98,1.38,23.08,2.07,27.34c9.09,0.32,26.37,0.49,44.64-1.61L365.58,292.76z"/>
			<g class="st29">
				<polygon class="st13" points="335.64,231 320.61,229.81 320.81,225.26 335.98,226.85 				"/>
				<polygon class="st13" points="350.69,232.19 336.72,231.09 337.06,226.96 350.99,228.42 				"/>
				<polygon class="st13" points="352.08,228.53 355.62,228.91 355.17,232.55 351.77,232.28 				"/>
			</g>
		</g>
		<path class="st26" d="M298.88,191.6l-1.74,2.52c0,0,9.49,14.64,16.48,13.32c6.98-1.32,16.48-15.43,17.8-19.65s2.68-9.2-2.55-8.49
			c-5.23,0.71-11.68,19.32-16.31,21.41C307.94,202.81,298.88,191.6,298.88,191.6z"/>
	</g>
</g>
<g id="Character_1">
	<g id="_x3C_Group_x3E__33_">
		<g>
			<path class="st6" d="M113.59,146.94c0,0,15.76,0.15,20.25,2.37s-9.59,17.22-14.15,14.64
				C115.13,161.36,109.19,153.2,113.59,146.94z"/>
			<path class="st11" d="M113.59,146.94c0,0,15.76,0.15,20.25,2.37s-9.59,17.22-14.15,14.64
				C115.13,161.36,109.19,153.2,113.59,146.94z"/>
		</g>
		<path class="st6" d="M113.51,403.86h-10.14c-0.34,0-0.64,0.24-0.71,0.57l-1.65,7.43c-0.14,0.67,0.28,1.32,0.95,1.46
			c0.09,0.02,0.18,0.03,0.27,0.03c3.28-0.05,5.67-0.25,9.79-0.25c2.54,0,10.19,0.27,13.69,0.27c3.5,0,3.96-3.46,2.53-3.78
			c-6.43-1.4-11.27-3.34-13.33-5.19C114.53,404.04,114.03,403.85,113.51,403.86z"/>
		<path class="st6" d="M156.5,403.59h-10.14c-0.34,0-0.64,0.24-0.71,0.57L144,411.6c-0.14,0.67,0.28,1.32,0.95,1.46
			c0.09,0.02,0.18,0.03,0.27,0.03c3.28-0.05,5.67-0.25,9.79-0.25c2.54,0,10.19,0.27,13.69,0.27c3.5,0,3.96-3.46,2.53-3.78
			c-6.43-1.4-11.27-3.34-13.33-5.19C157.52,403.77,157.01,403.58,156.5,403.59z"/>
		<path class="st8" d="M108.14,215.98h44.28c4.21,22.99,17.39,116.35,7.93,188.84h-14.99c0,0,1.39-110.09-11.85-145.67
			c-1.52,19.04-17,145.6-17,145.6h-15.26c0,0,2.28-47.61,4.56-92.58C107.26,283.85,108.08,221.8,108.14,215.98z"/>
		<path class="st11" d="M133.52,259.16c1.95,5.24,3.58,11.79,4.95,19.16c1.24-16.94-3.71-34.91-3.71-34.91L133.52,259.16z"/>
		<g>
			<path class="st6" d="M100.18,152.42c0,0,21.21-2.55,43.17,0.22c0,0,7.38,33.74,8.11,66.03h-44.58
				C106.89,218.67,106.85,173.1,100.18,152.42z"/>
			<path class="st16" d="M100.18,152.42c0,0,21.21-2.55,43.17,0.22c0,0,7.38,33.74,8.11,66.03h-44.58
				C106.89,218.67,106.85,173.1,100.18,152.42z"/>
		</g>
		<path class="st30" d="M115.86,153.31c3.83,3.48,13.21,2.19,13.21,2.19s5.86-1.6,4.63-3.43c-3.45-0.57-5.12-2.18-5.81-4.24
			c-0.4-1.2-0.46-2.55-0.35-3.94c0.05-0.73,0.16-1.47,0.29-2.2l-11.6-8.59C117.75,138.77,119.61,149.2,115.86,153.31z"/>
		<path class="st11" d="M118.91,138.56c0.46,6.96,6.18,8.88,8.98,9.27c-0.4-1.2-0.46-2.55-0.35-3.94L118.91,138.56z"/>
		<g>
			<path class="st8" d="M140.01,116.99c0,0,1.73,11.17-4.19,15.48c-5.92,4.32-5.98-16.48-5.98-16.48L140.01,116.99z"/>
			<path class="st30" d="M118.63,141.41c2.89,4.13,7.59,5.2,11.66,3.89c2.62-0.83,4.97-2.66,6.43-5.27c0.2-0.34,0.37-0.7,0.53-1.07
				c2.9-6.84,3.79-18.78-3.44-23.24c-5.14-3.21-11.92-1.66-15.13,3.49c-0.92,1.46-1.48,3.12-1.64,4.84
				C116.18,132.04,115.3,136.69,118.63,141.41z"/>
			<path class="st8" d="M128.69,128.28c-0.15,0.63,0.14,1.22,0.57,1.29c0.43,0.07,0.85-0.4,0.96-1.04c0.11-0.64-0.15-1.22-0.57-1.29
				C129.24,127.17,128.81,127.63,128.69,128.28z"/>
			<path class="st8" d="M135.98,129.51c-0.15,0.63,0.15,1.22,0.57,1.29c0.42,0.07,0.85-0.4,0.96-1.04c0.11-0.64-0.15-1.22-0.57-1.29
				C136.53,128.39,136.09,128.89,135.98,129.51z"/>
			<path class="st31" d="M133.61,129.43c0.44,2.1,1.16,4.13,2.16,6.03c-1,0.49-2.17,0.51-3.2,0.06L133.61,129.43z"/>
			<path class="st8" d="M139.21,126.84c-0.14,0.05-0.29,0.02-0.39-0.07c-0.72-0.66-1.7-0.95-2.66-0.77
				c-0.2,0.06-0.41-0.06-0.47-0.27c-0.06-0.2,0.06-0.41,0.27-0.47c0,0,0,0,0,0c1.21-0.25,2.46,0.09,3.37,0.93
				c0.16,0.13,0.18,0.38,0.05,0.54c0,0,0,0-0.01,0.01C139.32,126.78,139.26,126.82,139.21,126.84z"/>
			<path class="st8" d="M127.74,125.13c-0.08-0.02-0.15-0.05-0.2-0.11c-0.11-0.18-0.06-0.41,0.12-0.53c0,0,0,0,0.01,0
				c1.05-0.66,2.35-0.77,3.49-0.3c0.19,0.09,0.27,0.32,0.18,0.51l0,0c-0.1,0.19-0.32,0.26-0.51,0.18l0,0
				c-0.91-0.35-1.94-0.25-2.76,0.28C127.96,125.19,127.84,125.18,127.74,125.13z"/>
			<path class="st8" d="M124.51,115.15l0.01,3.57c-1.23,0.48-2.08,1.7-1.71,3.14c0.78,3.09-1.44,7.48-3.93,9.04
				c0,0,0.08-1.29-1.03-1.11c-1.12,0.18-1.61,6.88,0.12,10.31c0,0-2.85-3.26-3.81-10.47c-0.89-6.67-0.46-12.1,1.17-14.44
				L124.51,115.15z"/>
			<path class="st30" d="M112.49,129.97c0.58,1.94,1.9,3.57,3.68,4.54c2.36,1.26,4.12-0.72,3.96-3.25c-0.17-2.25-1.58-5.69-4.2-5.88
				C113.32,125.18,111.81,127.58,112.49,129.97z"/>
			<g>
				<path class="st8" d="M131.74,137.49c-0.66,0.9-1.49,2.66-1.49,2.66c-0.17-0.05-0.35-0.09-0.52-0.15
					c-2.34-0.69-3.2-1.78-3.44-2.78c-0.13-0.55-0.07-1.07,0.03-1.49c0.11-0.48,0.31-0.79,0.31-0.79c1.02,1.1,3.15,1.91,4.31,2.29
					C131.42,137.41,131.74,137.49,131.74,137.49z"/>
				<path class="st13" d="M130.94,137.24l-0.46,0.77c-2.2-0.65-3.66-1.41-4.16-2.28c0.11-0.48,0.31-0.79,0.31-0.79
					C127.66,136.05,129.79,136.86,130.94,137.24z"/>
				<path class="st31" d="M129.73,140c-2.34-0.69-3.2-1.78-3.44-2.78c0.79,0.26,1.71,0.67,2.44,1.28
					C129.3,138.96,129.59,139.5,129.73,140z"/>
			</g>
			<path class="st8" d="M124.52,118.71c0,0,17.77,6.07,15.72-5.92c0,0-9.59-5.65-17.95-4.07c-8.36,1.58-7.7,10.25-7.7,10.25
				L124.52,118.71z"/>
		</g>
		<g>
			<path class="st6" d="M113.54,149.9c0,0,1.19,40.76-7.73,79.24l-5.63-4.85c0,0,2.7-48.49,0-71.88L113.54,149.9z"/>
			<path class="st6" d="M133.84,150.56c0,0,11.63,19.33,16.78,77.28l4.56-2.25c0,0-5.2-55.53-11.82-72.96L133.84,150.56z"/>
			<path class="st32" d="M105.81,229.14l-5.63-4.84c0,0,1.16-20.84,1.2-41.78c0.01-3.8-0.02-7.61-0.11-11.29
				c-0.15-6.99-0.48-13.54-1.09-18.81l13.36-2.52C113.54,149.9,114.73,190.67,105.81,229.14z"/>
			<path class="st32" d="M133.84,150.56c0,0,11.63,19.33,16.78,77.28l4.56-2.25c0,0-5.2-55.53-11.82-72.96L133.84,150.56z"/>
		</g>
		<path class="st6" d="M113.59,146.94c0,0,1.04,3.38,3.12,4.81l-3.16,8.24v-4.55l-0.9,1.97l-3.94-6.6L113.59,146.94z"/>
		<path class="st6" d="M130.73,148.36c0,0,3.58,1.06,6.54,9.96v-3.66l3.14,1.55c0,0-4.51-6.06-5.63-6.79
			C133.67,148.7,130.73,148.36,130.73,148.36z"/>
		<g>
			<path class="st6" d="M137.77,176.88c0.03,0.4-0.27,0.75-0.68,0.78l-19.35,1.17c-0.39,0.03-0.74-0.28-0.76-0.68l-0.4-6.87
				l-0.4-6.84c-0.02-0.41,0.3-0.75,0.7-0.76l19.06-0.52c0.38-0.01,0.71,0.27,0.74,0.66l0.55,6.64L137.77,176.88z"/>
			<path class="st33" d="M137.77,176.88c0.03,0.4-0.27,0.75-0.68,0.78l-19.35,1.17c-0.39,0.03-0.74-0.28-0.76-0.68l-0.4-6.87
				l-0.4-6.84c-0.02-0.41,0.3-0.75,0.7-0.76l19.06-0.52c0.38-0.01,0.71,0.27,0.74,0.66l0.55,6.64L137.77,176.88z"/>
			<path class="st11" d="M137.77,176.88c0.03,0.4-0.27,0.75-0.68,0.78l-19.35,1.17c-0.39,0.03-0.74-0.28-0.76-0.68l-0.4-6.87
				c1.25-2.6,2.92-5.5,4.08-5.46c2.11,0.07,1.11,6.69,2.19,7.59c1.08,0.89,4.3-5.29,4.66-4.69c0.38,0.59,0.26,2.7,0.43,3.23
				c0.12,0.37,5.98-0.8,9.29-1.49L137.77,176.88z"/>
		</g>
		<path class="st29" d="M101.38,182.52c0.01-3.8-0.02-7.61-0.11-11.29c0.74-1.62,1.25-2.68,1.25-2.68S105.3,175.58,101.38,182.52z"
			/>
		<path class="st6" d="M93.18,164.78c0,0-10.73,25.46-12.83,25.23c-2.1-0.23-4.57-6.45-4.57-6.45l-5.1,2.4c0,0,3.83,9.76,9.67,12.39
			c5.83,2.64,17.91-22.55,17.91-22.55L93.18,164.78z"/>
		<path class="st16" d="M93.18,164.78c0,0-10.73,25.46-12.83,25.23c-2.1-0.23-4.57-6.45-4.57-6.45l-5.1,2.4
			c0,0,3.83,9.76,9.67,12.39c5.83,2.64,17.91-22.55,17.91-22.55L93.18,164.78z"/>
		<path class="st6" d="M100.18,152.42c-2.68,1.21-15.7,25.31-15.7,25.31l11.13,7.86l5.44-7.86c0,0,1.3-0.62,1.3-9.13
			C102.35,160.1,100.18,152.42,100.18,152.42z"/>
		<g>
			<path class="st8" d="M203.61,258.01l0.13-0.18c0.22-0.31,0.65-0.38,0.97-0.16l4.52,3.21c0.31,0.22,0.38,0.65,0.16,0.97
				l-0.13,0.18c-0.22,0.31-0.65,0.38-0.97,0.16l-4.52-3.21C203.47,258.75,203.39,258.32,203.61,258.01z"/>
			<path class="st8" d="M58.54,156.46l1.38-1.94c1.35-1.9,3.98-2.35,5.88-1l6.13,4.35l-6.26,8.83l-6.13-4.35
				C57.64,161,57.19,158.36,58.54,156.46z"/>
			<path class="st8" d="M186.6,261.16l20.09,0.27l1.25-1.76l-6.89-18.88v0c-5.92-1.11-11.79-3.62-16.95-7.22L70.13,154.03
				c-0.61-0.42-1.44-0.28-1.87,0.33l-7.12,10.04c-0.43,0.6-0.29,1.44,0.31,1.87l112.73,81.28
				C179.29,251.23,183.59,255.94,186.6,261.16L186.6,261.16z"/>
			<path class="st34" d="M186.59,261.16c-2.99-5.23-7.3-9.93-12.41-13.62l-27.18-19.59l-0.94-0.68l-0.94-0.68l-74.92-54.02
				l-0.94-0.68l-0.94-0.67l-6.88-4.97c-0.6-0.43-0.74-1.26-0.31-1.86l7.12-10.04c0.43-0.6,1.26-0.75,1.86-0.32l6.96,4.85l0.94,0.67
				l0.95,0.66l75.74,52.87l1.9,1.32l27.47,19.18c2.59,1.81,5.33,3.33,8.19,4.55c2.85,1.22,5.81,2.12,8.76,2.67l0.31,0.83l0.48,1.32
				l6.11,16.72l-1.25,1.76l-17.81-0.23l-1.4-0.02L186.59,261.16z"/>
			<path class="st8" d="M157.57,225.55l0.27-0.39c0.48-0.68,1.43-0.84,2.11-0.36l23.76,16.86c0.68,0.48,0.84,1.43,0.36,2.11
				l-0.27,0.39c-0.48,0.68-1.43,0.84-2.11,0.36l-23.76-16.86C157.25,227.18,157.09,226.23,157.57,225.55z"/>
			<g class="st11">
				<polygon points="187.47,261.17 201.35,241.62 201.83,242.94 188.88,261.19 				"/>
			</g>
			<g class="st11">
				<g>
					<path d="M156.62,214.4l-1.9-1.32l-9.59,13.51l0.94,0.68l0.94,0.68L156.62,214.4z"/>
				</g>
			</g>
			<g class="st11">
				<g>
					<path d="M78.98,160.21l-0.95-0.66l-0.94-0.67l-8.76,12.34l0.94,0.67l0.94,0.68L78.98,160.21z"/>
				</g>
			</g>
		</g>
		<path class="st30" d="M157.25,209.83l-0.94,1.71c0,0-1.92-0.29-3.49,1.14c0,0,0.66,3.92,0.9,4.42c0.52,1.1,6.17,3.79,7.52,3.79
			c0.43,0,0.84-2.87,0.57-3.79c-0.28-0.97-2.27-3.33-2.27-3.33l0.78-1.52L157.25,209.83z"/>
		<g>
			<path class="st6" d="M145.84,161.41c0,0,17.31,12.5,22.26,26.14c3.73,10.26-7.41,26.29-7.41,26.29l-4.66-3.47
				c0,0,7.82-15.1,5.82-21.41c-2-6.31-11.55-12.57-11.55-12.57L145.84,161.41z"/>
			<path class="st16" d="M145.84,161.41c0,0,17.31,12.5,22.26,26.14c3.73,10.26-7.41,26.29-7.41,26.29l-4.66-3.47
				c0,0,7.82-15.1,5.82-21.41c-2-6.31-11.55-12.57-11.55-12.57L145.84,161.41z"/>
		</g>
		<path class="st6" d="M162.79,174.98l-5.57,9.57l-2.75-1.19l-4.64-2.01l-2.68-11.89l-3.79-16.82
			C147.99,154.86,162.79,174.98,162.79,174.98z"/>
		<path class="st30" d="M75.23,183.83l-1.15-3.66c0,0,1.71-0.35,1.71-1.86c0-1.5-0.15-5.17-0.85-5.91c-0.71-0.73-4.66-3.35-5.54-3.8
			c-0.88-0.45-1.83,2.92-1.87,4.39s3.16,6.3,3.16,6.3l1.28,6.08L75.23,183.83z"/>
		<path class="st11" d="M154.47,183.35l-4.64-2.01l-2.68-11.89C149.95,172.57,154.3,178.07,154.47,183.35z"/>
	</g>
</g>
</svg>
