<?xml version="1.0" encoding="utf-8"?>
<!-- Generator: Adobe Illustrator 25.0.0, SVG Export Plug-In . SVG Version: 6.00 Build 0)  -->
<svg version="1.0" id="_x3C_Layer_x3E_" xmlns="http://www.w3.org/2000/svg" xmlns:xlink="http://www.w3.org/1999/xlink" x="0px"
	 y="0px" viewBox="0 0 2760 1840" style="enable-background:new 0 0 2760 1840;" xml:space="preserve">
<style type="text/css">
	.st0{fill:#FFFFFF;}
	.st1{fill:#BDD1FF;}
	.st2{fill:#283689;}
	.st3{fill:#8FA6EF;}
	.st4{fill:#505ABA;}
	.st5{fill:#2B478B;}
	.st6{fill:#778DE8;}
	.st7{fill:#E27227;}
	.st8{fill:#1C3870;}
	.st9{fill:#8C9DF4;}
	.st10{fill:#1B376D;}
	.st11{fill:#F99746;}
	.st12{opacity:0.7;}
	.st13{fill:#D86713;}
	.st14{fill:#A8D29F;}
	.st15{fill:#82B378;}
	.st16{opacity:0.1;}
	.st17{fill:#DDE7FE;}
	.st18{fill:#EBF2F9;}
	.st19{fill:#D5E5FB;}
	.st20{fill:#E2EEFD;}
	.st21{fill:#9DB0F4;}
	.st22{fill:#AFCDFB;}
	.st23{fill:#AEC3FF;}
	.st24{fill:#819DEA;}
	.st25{fill:#C5D7FF;}
	.st26{fill:#D36D1A;}
	.st27{fill:#F49540;}
	.st28{fill:#FFA255;}
	.st29{fill:#F8FCFF;}
	.st30{opacity:0.5;}
	.st31{fill:#ED7D2B;}
	.st32{fill:#131375;}
	.st33{fill:#060633;}
	.st34{fill:#829CE8;}
	.st35{fill:#ED975D;}
	.st36{fill:#FFB27D;}
	.st37{fill:#A9453D;}
	.st38{fill:#7A96E5;}
	.st39{fill:#233862;}
	.st40{fill:#EF873A;}
	.st41{fill:#F77D48;}
	.st42{fill:#15156D;}
	.st43{fill:#FA7267;}
	.st44{fill:#17152B;}
	.st45{opacity:0.3;}
	.st46{fill:#EA9963;}
	.st47{fill:#6980E2;}
	.st48{fill:#9FB1FF;}
	.st49{fill:#182D4C;}
	.st50{fill:#FFB583;}
	.st51{fill:#EA6C2D;}
	.st52{fill:#95C38B;}
	.st53{fill:#B5453C;}
	.st54{fill:#EFCBAB;}
	.st55{fill:#699DEE;}
	.st56{fill:#548EE2;}
</style>
<rect class="st0" width="2760" height="1840"/>
<g>
	<g>
		<path class="st1" d="M2562.42,1480.95c-6.17,11.31-12.37,21.35-18.19,30.06c-0.17,0.26-0.34,0.52-0.52,0.77
			c-16.83,25.07-45.07,40.08-75.26,40.08c-161.8-0.01-720.25-0.03-894.32-0.09c0,0-913.16-2.59-1198.81-3.52
			c-55.9-0.18-106.37-33.27-129.01-84.38c-25.72-58.03-53.61-141.64-56.84-236.39c-5.14-150.34,51.77-328.74,277.8-477.56
			c194.23-127.88-12.16-212.3,142.3-354.67c177.49-163.6,371.21,17.39,568.6-56.8c34.87-13.1,69.86-34.17,104.89-66.52
			c19.73-18.19,41.34-34.09,64.47-47.83c3.55-2.11,7.13-4.17,10.75-6.18c13.86-7.68,28.22-14.62,43.01-20.87
			c9.94-4.18,20.05-8.06,30.38-11.61c16.36-5.65,33.19-10.52,50.35-14.64c24.38-5.86,49.49-10.22,75.07-13.17
			c11.17-1.3,22.43-2.3,33.77-3.07c220.54-14.83,468.74,68.52,596.82,190.32c25.78,24.54,143.04,151.45,50.62,325.89
			c-58.37,110.13,186.12,215.33,273,341.1c54.36,78.69,82.17,151.09,93.18,215.61C2623.31,1337.67,2593.11,1424.84,2562.42,1480.95z
			"/>
	</g>
	<g>
		<path class="st2" d="M1014.68,1227.79l-4.74-0.61c0.11-0.85,2.92-21,22.78-33.56c17.55-11.1,11.55-45.8,11.49-46.15l4.7-0.85
			c0.07,0.38,1.69,9.54,0.92,20.35c-1.04,14.7-6.07,25.31-14.57,30.69C1017.3,1209.03,1014.71,1227.6,1014.68,1227.79z"/>
	</g>
	<g>
		<path class="st2" d="M1045.26,1228.63c-0.12-0.22-11.64-21.86,9.15-35.02c17.17-10.86,1.93-44.6,1.77-44.94l4.34-2
			c0.17,0.38,4.27,9.38,6.03,20.05c2.42,14.73-0.89,25.42-9.59,30.92c-17.05,10.78-7.91,27.96-7.51,28.68L1045.26,1228.63z"/>
	</g>
	<g>
		<path class="st3" d="M2562.66,1532.08c-0.4,0.9-0.79,1.79-1.2,2.68c-0.8,1.78-1.6,3.53-2.4,5.25
			c-5.37,11.59-10.72,22.01-15.79,31.2c-0.17,0.32-0.34,0.62-0.52,0.94c-16.83,30.4-45.07,48.59-75.27,48.59
			c-64.19,0-190.8-0.01-331.07-0.02h-19.12c-76.45-0.01-156.26-0.01-231.69-0.03h-22.54c-121.35-0.01-229.08-0.03-289.89-0.06
			c0,0-305.8-1.05-618.83-2.15c-5.3-0.02-10.6-0.04-15.9-0.06c-91.12-0.33-182.43-0.65-266.55-0.96
			c-10.89-0.04-21.65-0.08-32.28-0.11c-108.03-0.38-202.01-0.74-265.25-0.99c-44.28-0.17-85.15-25.38-111.48-66.65
			c-1.39-2.17-2.73-4.39-4.03-6.65c-5.2-9-9.73-18.7-13.5-28.99c-25.72-70.35-53.6-171.71-56.84-286.58h2415.02
			C2622.11,1359.32,2592.92,1463.98,2562.66,1532.08z"/>
	</g>
	<g>
		<g>
			<polygon class="st4" points="2039.7,1468.9 681.72,1468.9 818.59,1329.48 1920.42,1329.48 			"/>
		</g>
		<g>
			<rect x="681.72" y="1468.9" class="st5" width="1357.98" height="17.81"/>
		</g>
		<g>
			<g>
				<g>
					<rect x="826.42" y="1358.72" class="st5" width="1082.34" height="4.75"/>
				</g>
			</g>
			<g>
				<g>
					<rect x="789.73" y="1387.85" class="st5" width="1148.06" height="4.76"/>
				</g>
			</g>
			<g>
				<g>
					<rect x="759.15" y="1420.04" class="st5" width="1209.21" height="4.75"/>
				</g>
			</g>
			<g>
				<rect x="831.9" y="1337.25" class="st5" width="48.93" height="14.68"/>
			</g>
			<g>
				<rect x="1206.74" y="1337.25" class="st5" width="48.94" height="14.68"/>
			</g>
			<g>
				<rect x="1285.44" y="1337.25" class="st5" width="48.94" height="14.68"/>
			</g>
			<g>
				<rect x="1494.65" y="1337.25" class="st5" width="48.93" height="14.68"/>
			</g>
			<g>
				<rect x="1567.42" y="1337.25" class="st5" width="48.94" height="14.68"/>
			</g>
			<g>
				<rect x="1646.12" y="1337.25" class="st5" width="48.93" height="14.68"/>
			</g>
		</g>
	</g>
	<g>
		<g>
			<path class="st5" d="M2544.49,1227.48h-9.61c-21.69-31.71-40.49-33.18-76.93-36.01c-11.21-0.86-23.92-1.85-38.8-3.86
				c-33.19-4.46-44.1-22.27-56.73-42.9c-5.72-9.34-11.62-19-20.25-28.76c-26.49-29.97-86.04-21.22-86.64-21.13l-1.23-7.92
				c2.62-0.4,64.47-9.53,93.86,23.73c9.09,10.3,15.47,20.71,21.09,29.89c12.5,20.43,21.54,35.18,50.97,39.14
				c14.65,1.97,27.24,2.94,38.34,3.81C2498.2,1186.56,2519.42,1188.2,2544.49,1227.48z"/>
		</g>
	</g>
	<g>
		<g>
			<path class="st6" d="M2224.85,1282.55h-179.73c-16.27,0-29.46-13.19-29.46-29.46v-179.72c0-16.27,13.19-29.46,29.46-29.46h179.73
				c16.27,0,29.46,13.19,29.46,29.46v179.72C2254.31,1269.36,2241.12,1282.55,2224.85,1282.55z"/>
		</g>
		<g>
			<g>
				<g>
					<path class="st7" d="M2216.79,1157.86c0,4.28-0.33,8.49-0.96,12.6c-0.15,1-0.33,1.99-0.53,2.98
						c-1.35,7.06-3.62,13.8-6.66,20.09c-0.29,0.6-0.59,1.2-0.9,1.79c-5.32,10.35-12.8,19.41-21.83,26.62
						c-0.49,0.39-0.98,0.78-1.48,1.15c-9.19,7-19.93,12.1-31.6,14.7h-0.01l-2.1,0.45h-0.01c-2.96,0.58-5.96,1-9.03,1.24
						c-1,0.09-1.99,0.16-2.99,0.19h-0.01c-1.25,0.08-2.52,0.1-3.78,0.1c-8.72,0-17.12-1.37-25.01-3.9c-1.23-0.39-2.44-0.8-3.65-1.26
						c-2.82-1.04-5.56-2.24-8.22-3.6c-0.6-0.3-1.19-0.6-1.78-0.91c-11.39-6.11-21.15-14.83-28.51-25.35
						c-0.36-0.51-0.73-1.03-1.08-1.55c-5.05-7.59-8.87-16.07-11.17-25.16c-0.31-1.24-0.6-2.49-0.85-3.76
						c-0.63-3.07-1.08-6.19-1.35-9.37c-0.06-0.79-0.13-1.58-0.16-2.37v-0.01c-0.09-1.55-0.14-3.11-0.14-4.67
						c0-8.52,1.3-16.72,3.71-24.45c0.21-0.68,0.44-1.36,0.67-2.04c3.83-11.25,10.06-21.39,18.05-29.84c0.44-0.45,0.86-0.9,1.32-1.34
						c8.08-8.17,17.87-14.63,28.81-18.83c0.63-0.25,1.25-0.48,1.89-0.7c8.59-3.06,17.84-4.72,27.47-4.72
						c4.61,0,9.13,0.38,13.53,1.12c0.78,0.12,1.55,0.26,2.33,0.43c0.55,0.1,1.1,0.21,1.65,0.34c1.08,0.24,2.15,0.49,3.22,0.78
						c11.82,3.07,22.62,8.74,31.73,16.35c0.49,0.4,0.96,0.8,1.44,1.23c9.63,8.42,17.26,19.05,22.11,31.1
						c0.26,0.61,0.5,1.23,0.73,1.85c2,5.32,3.46,10.92,4.31,16.71c0.16,1.08,0.3,2.17,0.4,3.26v0.01
						C2216.62,1151.99,2216.79,1154.91,2216.79,1157.86z"/>
				</g>
			</g>
			<g>
				<g>
					<g>
						<path class="st8" d="M2185.9,1221.94c-0.49,0.39-0.98,0.78-1.48,1.15l-10.91-12.16l-1.25-1.39l-22.42-25.01l-1.25-1.39
							l-25.31-28.22l-1.25-1.39l-24.99-27.87l-1.25-1.4l-20.39-22.72c0.44-0.45,0.86-0.9,1.32-1.34l20.47,22.82l1.25,1.39
							l24.99,27.87l1.25,1.39l25.31,28.22l1.25,1.39l22.43,25.01l1.24,1.39L2185.9,1221.94z"/>
					</g>
				</g>
				<g>
					<g>
						<path class="st8" d="M2208.63,1193.53c-0.29,0.6-0.59,1.2-0.9,1.79l-7.5-8.37l-1.25-1.39l-22.42-25l-1.25-1.39l-25.31-28.22
							l-1.25-1.39l-25-27.88l-1.24-1.39l-16.98-18.93c0.63-0.25,1.25-0.48,1.89-0.7l16.48,18.39l1.25,1.39l24.99,27.87l1.25,1.39
							l25.31,28.22l1.25,1.39l22.42,25.01l1.25,1.39L2208.63,1193.53z"/>
					</g>
				</g>
				<g>
					<g>
						<path class="st8" d="M2215.91,1145.84c0.16,1.08,0.3,2.17,0.4,3.26l-12.03-13.4l-1.24-1.39l-25.33-28.23l-1.24-1.39
							l-24.1-26.85c1.08,0.24,2.15,0.49,3.22,0.78l22.27,24.83l1.25,1.39l25.31,28.23l1.24,1.39L2215.91,1145.84z"/>
					</g>
				</g>
				<g>
					<g>
						<path class="st8" d="M2152.81,1237.8l-2.1,0.45h-0.01l-3.41-3.81l-1.24-1.39l-22.43-25l-1.25-1.39l-25.3-28.22l-1.25-1.4
							l-25-27.86l-1.25-1.4l-12.89-14.37c0.21-0.68,0.44-1.36,0.67-2.04l13.6,15.17l1.25,1.39l25,27.87l1.24,1.39l25.33,28.22
							l1.24,1.39l22.43,25.01l1.25,1.39L2152.81,1237.8z"/>
					</g>
				</g>
				<g>
					<g>
						<path class="st8" d="M2150.73,1077.49l-25.59,22.96l-1.4,1.24l-25.31,22.72l-1.39,1.25l-24.84,22.27l-1.39,1.25l-17.55,15.73
							c-0.06-0.79-0.13-1.58-0.16-2.37v-0.01l16.46-14.75l1.39-1.24l24.84-22.28l1.39-1.24l25.33-22.72l1.39-1.24l24.51-21.99
							C2149.18,1077.19,2149.95,1077.32,2150.73,1077.49z"/>
					</g>
				</g>
				<g>
					<g>
						<path class="st8" d="M2188.77,1096.17l-9.65,8.64l-1.4,1.25l-26.34,23.63l-1.39,1.25l-25.33,22.71l-1.39,1.25l-24.84,22.27
							l-1.38,1.25l-21.47,19.24l-1.39,1.25l-6.49,5.82c-0.36-0.51-0.73-1.03-1.08-1.55l6.33-5.66l1.39-1.25l21.46-19.25l1.39-1.24
							l24.83-22.27l1.39-1.25l25.33-22.71l1.39-1.25l26.35-23.63l1.39-1.25l9.46-8.48
							C2187.82,1095.35,2188.29,1095.75,2188.77,1096.17z"/>
					</g>
				</g>
				<g>
					<g>
						<path class="st8" d="M2211.6,1129.13l-5.92,5.31l-1.39,1.25l-26.34,23.62l-1.39,1.25l-25.33,22.71l-1.39,1.25L2125,1206.8
							l-1.39,1.25l-21.46,19.24l-1.39,1.25l-2.77,2.48c-0.6-0.3-1.19-0.6-1.78-0.91l3.29-2.96l1.39-1.25l21.46-19.24l1.4-1.25
							l24.82-22.27l1.39-1.25l25.33-22.71l1.39-1.25l26.35-23.62l1.39-1.25l6.44-5.77
							C2211.14,1127.89,2211.38,1128.5,2211.6,1129.13z"/>
					</g>
				</g>
				<g>
					<g>
						<path class="st8" d="M2215.82,1170.46c-0.15,1-0.33,1.99-0.53,2.98l-13.68,12.28l-1.39,1.24l-25.33,22.72l-1.39,1.25
							l-24.83,22.27l-1.4,1.24l-5.62,5.05c-1,0.09-1.99,0.16-2.99,0.19l7.38-6.63l1.39-1.24l24.83-22.27l1.4-1.25l25.31-22.72
							l1.39-1.24L2215.82,1170.46z"/>
					</g>
				</g>
				<g>
					<g>
						<path class="st8" d="M2109.86,1235.88c-1.23-0.39-2.44-0.8-3.65-1.26l-5.45-6.08l-1.25-1.39l-25.31-28.22l-1.24-1.39
							l-17.5-19.5c-0.31-1.24-0.6-2.49-0.85-3.76l19.74,22.01l1.24,1.39l25.31,28.22l1.25,1.39L2109.86,1235.88z"/>
					</g>
				</g>
			</g>
		</g>
	</g>
	<g>
		<g>
			<path class="st9" d="M2224.85,1044.68h-179.73c-16.27,0-29.46-13.19-29.46-29.46V835.49c0-16.27,13.19-29.46,29.46-29.46h179.73
				c16.27,0,29.46,13.19,29.46,29.46v179.73C2254.31,1031.49,2241.12,1044.68,2224.85,1044.68z"/>
		</g>
		<g>
			<g>
				<g>
					<path class="st7" d="M2216.79,919.98c0,4.28-0.33,8.49-0.96,12.6c-0.15,1-0.33,1.99-0.53,2.98c-1.35,7.06-3.62,13.8-6.66,20.09
						c-0.29,0.6-0.59,1.2-0.9,1.79c-5.32,10.35-12.8,19.41-21.83,26.62c-0.49,0.39-0.98,0.78-1.48,1.15
						c-9.19,7-19.93,12.1-31.6,14.71h-0.01l-2.1,0.45h-0.01c-2.96,0.58-5.96,1-9.03,1.24c-1,0.09-1.99,0.16-2.99,0.19h-0.01
						c-1.25,0.08-2.52,0.1-3.78,0.1c-8.72,0-17.12-1.37-25.01-3.9c-1.23-0.39-2.44-0.8-3.65-1.26c-2.82-1.04-5.56-2.24-8.22-3.59
						c-0.6-0.3-1.19-0.6-1.78-0.91c-11.39-6.11-21.15-14.83-28.51-25.35c-0.36-0.51-0.73-1.03-1.08-1.55
						c-5.05-7.59-8.87-16.07-11.17-25.16c-0.31-1.24-0.6-2.49-0.85-3.76c-0.63-3.07-1.08-6.19-1.35-9.37
						c-0.06-0.79-0.13-1.58-0.16-2.37v-0.01c-0.09-1.55-0.14-3.11-0.14-4.67c0-8.52,1.3-16.72,3.71-24.45
						c0.21-0.68,0.44-1.37,0.67-2.04c3.83-11.25,10.06-21.39,18.05-29.83c0.44-0.45,0.86-0.9,1.32-1.34
						c8.08-8.17,17.87-14.63,28.81-18.83c0.63-0.25,1.25-0.47,1.89-0.7c8.59-3.06,17.84-4.72,27.47-4.72
						c4.61,0,9.13,0.38,13.53,1.12c0.78,0.12,1.55,0.26,2.33,0.42c0.55,0.1,1.1,0.21,1.65,0.34c1.08,0.24,2.15,0.49,3.22,0.78
						c11.82,3.07,22.62,8.74,31.73,16.34c0.49,0.4,0.96,0.8,1.44,1.23c9.63,8.42,17.26,19.05,22.11,31.1
						c0.26,0.61,0.5,1.23,0.73,1.85c2,5.32,3.46,10.92,4.31,16.71c0.16,1.08,0.3,2.17,0.4,3.26v0.01
						C2216.62,914.11,2216.79,917.03,2216.79,919.98z"/>
				</g>
			</g>
			<g>
				<g>
					<g>
						<path class="st8" d="M2185.9,984.06c-0.49,0.39-0.98,0.78-1.48,1.15l-10.91-12.16l-1.25-1.39l-22.42-25.01l-1.25-1.39
							l-25.31-28.22l-1.25-1.39l-24.99-27.87l-1.25-1.4l-20.39-22.72c0.44-0.45,0.86-0.9,1.32-1.34l20.47,22.82l1.25,1.39
							l24.99,27.87l1.25,1.39l25.31,28.22l1.25,1.39l22.43,25.01l1.24,1.39L2185.9,984.06z"/>
					</g>
				</g>
				<g>
					<g>
						<path class="st8" d="M2208.63,955.66c-0.29,0.6-0.59,1.2-0.9,1.79l-7.5-8.37l-1.25-1.39l-22.42-25l-1.25-1.39l-25.31-28.22
							l-1.25-1.39l-25-27.88l-1.24-1.39l-16.98-18.93c0.63-0.25,1.25-0.47,1.89-0.7l16.48,18.39l1.25,1.39l24.99,27.87l1.25,1.39
							l25.31,28.22l1.25,1.39l22.42,25.01l1.25,1.39L2208.63,955.66z"/>
					</g>
				</g>
				<g>
					<g>
						<path class="st8" d="M2215.91,907.96c0.16,1.08,0.3,2.17,0.4,3.26l-12.03-13.4l-1.24-1.39l-25.33-28.23l-1.24-1.39
							l-24.1-26.85c1.08,0.24,2.15,0.49,3.22,0.78l22.27,24.82l1.25,1.39l25.31,28.23l1.24,1.39L2215.91,907.96z"/>
					</g>
				</g>
				<g>
					<g>
						<path class="st8" d="M2152.81,999.92l-2.1,0.45h-0.01l-3.41-3.81l-1.24-1.39l-22.43-25l-1.25-1.39l-25.3-28.22l-1.25-1.4
							l-25-27.86l-1.25-1.4l-12.89-14.37c0.21-0.68,0.44-1.37,0.67-2.04l13.6,15.17l1.25,1.39l25,27.87l1.24,1.39l25.33,28.22
							l1.24,1.39l22.43,25.01l1.25,1.39L2152.81,999.92z"/>
					</g>
				</g>
				<g>
					<g>
						<path class="st8" d="M2150.73,839.61l-25.59,22.96l-1.4,1.24l-25.31,22.72l-1.39,1.25l-24.84,22.27l-1.39,1.25l-17.55,15.73
							c-0.06-0.79-0.13-1.58-0.16-2.37v-0.01l16.46-14.75l1.39-1.24l24.84-22.28l1.39-1.24l25.33-22.72l1.39-1.24l24.51-22
							C2149.18,839.31,2149.95,839.45,2150.73,839.61z"/>
					</g>
				</g>
				<g>
					<g>
						<path class="st8" d="M2188.77,858.3l-9.65,8.64l-1.4,1.25l-26.34,23.64l-1.39,1.25l-25.33,22.71l-1.39,1.25l-24.84,22.27
							l-1.38,1.25l-21.47,19.24l-1.39,1.25l-6.49,5.83c-0.36-0.51-0.73-1.03-1.08-1.55l6.33-5.66l1.39-1.25l21.46-19.25l1.39-1.24
							l24.83-22.27l1.39-1.25l25.33-22.71l1.39-1.25l26.35-23.63l1.39-1.25l9.46-8.48C2187.82,857.47,2188.29,857.87,2188.77,858.3z
							"/>
					</g>
				</g>
				<g>
					<g>
						<path class="st8" d="M2211.6,891.25l-5.92,5.31l-1.39,1.25l-26.34,23.62l-1.39,1.25l-25.33,22.71l-1.39,1.25L2125,968.92
							l-1.39,1.25l-21.46,19.24l-1.39,1.25l-2.77,2.48c-0.6-0.3-1.19-0.6-1.78-0.91l3.29-2.96l1.39-1.25l21.46-19.24l1.4-1.25
							l24.82-22.27l1.39-1.25l25.33-22.71l1.39-1.25l26.35-23.62l1.39-1.25l6.44-5.77C2211.14,890.01,2211.38,890.63,2211.6,891.25z
							"/>
					</g>
				</g>
				<g>
					<g>
						<path class="st8" d="M2215.82,932.59c-0.15,1-0.33,1.99-0.53,2.98l-13.68,12.27l-1.39,1.24l-25.33,22.72l-1.39,1.25
							l-24.83,22.27l-1.4,1.24l-5.62,5.05c-1,0.09-1.99,0.16-2.99,0.19l7.38-6.63l1.39-1.24l24.83-22.27l1.4-1.25l25.31-22.72
							l1.39-1.24L2215.82,932.59z"/>
					</g>
				</g>
				<g>
					<g>
						<path class="st8" d="M2109.86,998c-1.23-0.39-2.44-0.8-3.65-1.26l-5.45-6.08l-1.25-1.39l-25.31-28.22l-1.24-1.39l-17.5-19.5
							c-0.31-1.24-0.6-2.49-0.85-3.76l19.74,22.01l1.24,1.39l25.31,28.22l1.25,1.39L2109.86,998z"/>
					</g>
				</g>
			</g>
		</g>
	</g>
	<g>
		<g>
			<g>
				<g>
					<path class="st10" d="M2167.13,1434.79l126.59-113.9c5.16-4.64,19.24-7.83,31.46-7.12l162.41,9.4
						c12.21,0.71,17.93,5.04,12.77,9.69l-126.59,113.9c-5.16,4.64-19.24,7.83-31.45,7.12l-162.41-9.4
						C2167.69,1443.77,2161.97,1439.43,2167.13,1434.79z"/>
				</g>
				<g>
					<polygon class="st10" points="2502.25,1327.49 2502.25,1313.67 2168.37,1421.07 2165.49,1424.05 2165.23,1438.68 
						2312.74,1443.5 					"/>
				</g>
			</g>
			<g>
				<g>
					<path class="st4" d="M2322.87,1299.48l159.64,9.24c12.81,0.74,18.81,5.29,13.4,10.16l-119,107.07
						c-7.79,7.01-29.06,11.83-47.5,10.76l-143.05-8.28c-13.58-0.79-19.93-5.61-14.2-10.77L2297,1305.34
						C2301.24,1301.52,2312.82,1298.9,2322.87,1299.48z"/>
				</g>
				<g>
					<path class="st5" d="M2502.2,1313.69c-0.54-2.99-5.95-5.3-14.62-5.81l-162.41-9.4c-12.22-0.72-26.29,2.48-31.45,7.12
						l-126.59,113.89c-1.78,1.6-2.28,3.16-1.64,4.55v0.01c0.88,1.93,3.91,3.54,8.63,4.45h0.01c1.71,0.32,3.64,0.56,5.76,0.69
						l142.73,8.26h0.01l19.67,1.14c12.21,0.71,26.3-2.49,31.45-7.12l88-79.18l0.01-0.01l31.59-28.42l7-6.29
						c1.29-1.17,1.9-2.3,1.9-3.37C2502.25,1314.02,2502.23,1313.85,2502.2,1313.69z M2494.75,1317.23l-6.63,5.96l-0.01,0.01
						l-44.92,40.44l-0.07,0.06l-73.28,65.91l-0.01,0.01l-1.39,1.25l-0.01,0.01l-0.29,0.26c-3.85,3.47-14.37,5.84-23.48,5.31
						l-0.66-0.03h-0.05l-17.95-1.05l-143.75-8.32c-2.16-0.13-4.06-0.41-5.64-0.81c-5.06-1.26-6.83-3.77-3.9-6.42l0.29-0.24
						l0.02-0.02l1.39-1.25l124.9-112.39c3.85-3.45,14.38-5.83,23.49-5.3l162.39,9.39c7.75,0.45,12,2.86,10.73,5.7
						C2495.73,1316.2,2495.34,1316.7,2494.75,1317.23z"/>
				</g>
				<g>
					<path class="st5" d="M2177.39,1427.91l165.3,9.57c11.11,0.64,23.91-2.26,28.61-6.48l1.35-1.21l-201.03-11.63l-3.25,2.92
						C2164.73,1424.34,2168.77,1427.41,2177.39,1427.91z"/>
				</g>
			</g>
		</g>
		<g>
			<path class="st10" d="M2562.66,1532.08c-0.4,0.9-0.79,1.79-1.2,2.68c-0.8,1.78-1.6,3.53-2.4,5.25
				c-30.54-0.26-69.38,2.39-109.76,5.15c-104.46,7.13-212.45,14.5-246.93-18.99c-11.4-11.1-15.49-22.84-12.16-34.93
				c5.21-18.88,27.55-34.32,44.43-43.59c0-0.01,0.01-0.01,0.01-0.01c4.72-2.6,9.03-4.71,12.42-6.28h0.01
				c4.13-1.92,6.9-3.04,7.38-3.22l2.33,3.54l2.33,3.55c-0.12,0.05-3.09,1.24-7.63,3.4c-14.62,6.91-45.58,23.72-51.26,44.29
				c-2.69,9.77,0.6,19.01,10.11,28.26c31.07,30.18,141.05,22.67,238.07,16.05C2490.51,1534.33,2530.96,1531.58,2562.66,1532.08z"/>
		</g>
	</g>
	<g>
		<g>
			<rect x="761.64" y="449.15" class="st11" width="1198.14" height="703.38"/>
		</g>
		<g>
			<rect x="761.64" y="449.15" class="st2" width="1198.14" height="591.01"/>
		</g>
		<g>
			<path class="st11" d="M1517.51,1267.11v17.09h-351.8v-17.09c24.86,0,45.22-19.19,47.1-43.55c0.09-1.22,0.14-2.45,0.14-3.69
				v-67.34h257.32v67.34c0,1.24,0.05,2.47,0.14,3.69c0.89,11.57,5.96,21.98,13.69,29.72
				C1492.66,1261.83,1504.47,1267.11,1517.51,1267.11z"/>
		</g>
		<g class="st12">
			<rect x="1212.95" y="1152.53" class="st13" width="257.32" height="14.07"/>
		</g>
		<g class="st12">
			<path class="st13" d="M1517.51,1267.11h-351.8c24.86,0,45.22-19.19,47.1-43.55h257.6c0.89,11.57,5.96,21.98,13.69,29.72
				C1492.66,1261.83,1504.47,1267.11,1517.51,1267.11z"/>
		</g>
	</g>
	<g>
		<g>
			<path class="st14" d="M503.46,1051.43c0,0-12.47-110.68,35.42-203.94c5.08-9.89,17.68-7.4,19.76,3.92
				c7.45,40.58,14.87,121.63-19.45,207.74C490.35,1181.69,503.46,1051.43,503.46,1051.43z"/>
		</g>
		<g>
			<path class="st14" d="M560.65,1073.31c0,0,7.82-111.1,71.84-194.13c6.79-8.8,18.73-4.07,18.72,7.44
				c-0.04,41.25-7.45,122.31-56.83,200.76C524.11,1199.03,560.65,1073.31,560.65,1073.31z"/>
		</g>
		<g>
			<path class="st15" d="M528.79,1051.19c0,0,0.23-111.38,58.43-198.58c6.17-9.25,18.41-5.33,19.18,6.15
				c2.77,41.16,0.91,122.53-43,204.17C500.92,1179.1,528.79,1051.19,528.79,1051.19z"/>
		</g>
		<g>
			<path class="st15" d="M566.42,1056.81c0,0,21.98-84.13,83.04-138.64c6.47-5.78,14.96-0.43,13.29,8.4
				c-5.96,31.65-23.3,92.78-72.48,145.89C520.31,1148.03,566.42,1056.81,566.42,1056.81z"/>
		</g>
		<g>
			<path class="st14" d="M484.25,1064.41c0,0,12.47-110.68-35.42-203.94c-5.08-9.89-17.68-7.4-19.76,3.92
				c-7.45,40.58-14.87,121.63,19.45,207.74C497.36,1194.67,484.25,1064.41,484.25,1064.41z"/>
		</g>
		<g>
			<path class="st14" d="M427.06,1086.29c0,0-7.82-111.1-71.84-194.13c-6.79-8.8-18.73-4.07-18.72,7.44
				c0.04,41.25,7.45,122.31,56.83,200.76C463.6,1212.01,427.06,1086.29,427.06,1086.29z"/>
		</g>
		<g>
			<path class="st15" d="M458.92,1064.16c0,0-0.23-111.38-58.43-198.58c-6.17-9.25-18.41-5.33-19.18,6.15
				c-2.77,41.16-0.91,122.53,43,204.17C486.79,1192.08,458.92,1064.16,458.92,1064.16z"/>
		</g>
		<g>
			<path class="st15" d="M523.75,1070.15c0,0,21-109.38-19.52-206.08c-4.3-10.25-17.06-8.74-20,2.38
				c-10.57,39.88-24.25,120.11,3.31,208.63C526.74,1201.04,523.75,1070.15,523.75,1070.15z"/>
		</g>
		<g>
			<path class="st15" d="M421.29,1069.79c0,0-21.98-84.13-83.04-138.64c-6.47-5.78-14.96-0.43-13.29,8.4
				c5.96,31.65,23.3,92.78,72.48,145.89C467.41,1161.01,421.29,1069.79,421.29,1069.79z"/>
		</g>
		<g>
			<path class="st5" d="M555.89,1253.1H435.82c-49.86,0-90.66-40.8-90.66-90.66v-109.48c0-2.62,2.14-4.76,4.76-4.76h296.63v114.24
				C646.55,1212.3,605.75,1253.1,555.89,1253.1z"/>
		</g>
	</g>
	<g>
		<rect x="777.17" y="464.71" class="st4" width="1164.71" height="553.16"/>
	</g>
	<g>
		<g class="st16">
			<rect x="804.62" y="490.24" class="st17" width="249.73" height="249.73"/>
		</g>
		<g class="st16">
			<rect x="804.62" y="767.46" class="st17" width="249.73" height="227.52"/>
		</g>
		<g class="st16">
			<rect x="1102.73" y="796.1" class="st17" width="804.31" height="198.88"/>
		</g>
		<g>
			<rect x="1102.73" y="490.23" class="st18" width="514.1" height="281.35"/>
		</g>
		<g>
			<g>
				<path class="st19" d="M1592.39,567v204.58h-489.66V618.82h18.29v9.48h15.03v-5.51h13.93v-21.84h6.94v-10.19h1.05v10.19h16.65
					v-19.1h1.64v19.1h11.01v-0.27h-0.02v-2.42h0.02v-2.29h-0.02v-3.82h0.02v-2.44h-0.02v-3.81h0.02v-2.44h-0.02v-3.81h0.02V577
					h-0.02v-3.82h0.02v-3.34h-0.02v-3.82h0.02v-2.52h3.28v-2.86h0.53v2.86h24.32v-2.86h0.52v2.86h4.44v19.97l3.12,0.01v-0.01h-0.02
					v-3.81h0.02V577h-0.02v-3.82h0.02v-2.62h-0.02v-3.81h0.02v-0.02h29.48v0.02h5.08c0.26,0.1,0.52,0.2,0.78,0.29v21.79h21.54v28.62
					h17.41v-52.93h3.79v-3.7h0.68v3.7h13.75v-3.7h0.68v3.7h19.47v-3.7h0.68v3.7h12.25v-3.7h0.68v3.7h5.04v49.4h19.24v-7.98
					l22.69,0.07v-12.95h4.57v-2.55h0.6v2.55h17.52v0.01h3.51v-2.56h0.6v2.56h4.22v25.74h27.02v9.48h15.02v-5.51h13.93v-21.84h6.95
					v-10.19h1.04v10.19h16.65v-19.1h1.63v19.1h11.01v-0.27h-0.02v-2.42h0.02v-2.29h-0.02v-3.82h0.02v-2.44h-0.02v-3.81h0.02v-2.44
					h-0.02v-3.81h0.02V577h-0.02v-3.82h0.02v-3.34h-0.02v-3.82h0.02v-2.52h3.29v-2.86h0.53v2.86h24.31v-2.86h0.53v2.86h4.43v19.97
					l3.08,0.01h0.05v-0.01h-0.03v-3.81h0.03V577h-0.03v-3.82h0.03v-2.62h-0.03v-3.81h0.03v-0.02h29.48v0.02h5.07
					C1591.95,566.83,1592.16,566.92,1592.39,567z"/>
			</g>
			<g>
				<g>
					<rect x="1311.27" y="564.54" class="st20" width="43.5" height="8.37"/>
				</g>
				<g>
					<g>
						<rect x="1521.04" y="563.49" class="st20" width="20.29" height="5.08"/>
					</g>
					<g>
						<rect x="1521.04" y="571.32" class="st20" width="20.29" height="5.09"/>
					</g>
					<g>
						<rect x="1521.04" y="579.31" class="st20" width="20.29" height="5.09"/>
					</g>
					<g>
						<rect x="1521.04" y="587.43" class="st20" width="20.29" height="5.08"/>
					</g>
					<g>
						<rect x="1521.04" y="595.26" class="st20" width="20.29" height="5.09"/>
					</g>
				</g>
				<g>
					<g>
						<rect x="1521.04" y="603.88" class="st20" width="20.29" height="5.09"/>
					</g>
					<g>
						<rect x="1521.04" y="611.71" class="st20" width="20.29" height="5.08"/>
					</g>
					<g>
						<rect x="1521.04" y="619.7" class="st20" width="20.29" height="5.09"/>
					</g>
					<g>
						<rect x="1521.04" y="627.81" class="st20" width="20.29" height="5.08"/>
					</g>
					<g>
						<rect x="1521.04" y="635.65" class="st20" width="20.29" height="5.08"/>
					</g>
				</g>
				<g>
					<g>
						<rect x="1187.05" y="563.49" class="st20" width="21.75" height="5.08"/>
					</g>
					<g>
						<rect x="1187.05" y="571.32" class="st20" width="21.75" height="5.09"/>
					</g>
					<g>
						<rect x="1187.05" y="579.31" class="st20" width="21.75" height="5.09"/>
					</g>
					<g>
						<rect x="1187.05" y="587.43" class="st20" width="21.75" height="5.08"/>
					</g>
					<g>
						<rect x="1187.05" y="595.26" class="st20" width="21.75" height="5.09"/>
					</g>
				</g>
				<g>
					<g>
						<rect x="1187.05" y="603.88" class="st20" width="21.75" height="5.09"/>
					</g>
					<g>
						<rect x="1187.05" y="611.71" class="st20" width="21.75" height="5.08"/>
					</g>
					<g>
						<rect x="1187.05" y="619.7" class="st20" width="21.75" height="5.09"/>
					</g>
					<g>
						<rect x="1187.05" y="627.81" class="st20" width="21.75" height="5.08"/>
					</g>
					<g>
						<rect x="1187.05" y="635.65" class="st20" width="21.75" height="5.08"/>
					</g>
				</g>
				<g>
					<g>
						<rect x="1223.88" y="566.82" class="st20" width="24.72" height="5.09"/>
					</g>
					<g>
						<rect x="1223.88" y="574.65" class="st20" width="24.72" height="5.08"/>
					</g>
					<g>
						<rect x="1223.88" y="582.64" class="st20" width="24.72" height="5.08"/>
					</g>
					<g>
						<rect x="1223.88" y="590.76" class="st20" width="24.72" height="5.09"/>
					</g>
					<g>
						<rect x="1223.88" y="598.59" class="st20" width="24.72" height="5.08"/>
					</g>
				</g>
				<g>
					<g>
						<rect x="1223.88" y="606.76" class="st20" width="24.72" height="5.09"/>
					</g>
					<g>
						<rect x="1223.88" y="614.59" class="st20" width="24.72" height="5.08"/>
					</g>
					<g>
						<rect x="1223.88" y="622.58" class="st20" width="24.72" height="5.08"/>
					</g>
					<g>
						<rect x="1223.88" y="630.69" class="st20" width="24.72" height="5.09"/>
					</g>
					<g>
						<rect x="1223.88" y="638.53" class="st20" width="24.72" height="5.09"/>
					</g>
				</g>
			</g>
		</g>
		<g>
			<g>
				<path class="st21" d="M1548.51,545.89h-1.91l0.02-0.15l0.58-5.1c0.02-0.16,0.16-0.29,0.32-0.29c0.02,0,0.04,0,0.06,0
					c0.11,0.01,0.21,0.06,0.28,0.13c0.09,0.08,0.15,0.2,0.17,0.33L1548.51,545.89z"/>
			</g>
			<g>
				<path class="st22" d="M1546.78,544.73l-0.07,0l0.48-4.09c0.02-0.16,0.16-0.29,0.32-0.29c0.02,0,0.04,0,0.06,0
					c0.02,0.02,0.04,0.03,0.05,0.05c0.08,0.09,0.13,0.21,0.14,0.34l0.03,2.94C1547.79,544.25,1547.34,544.72,1546.78,544.73z"/>
			</g>
			<g>
				<rect x="1546.04" y="568.56" class="st21" width="3.68" height="162.64"/>
			</g>
			<g>
				<rect x="1546.04" y="568.56" class="st23" width="1.7" height="162.64"/>
			</g>
			<g>
				<rect x="1542.02" y="705.25" class="st21" width="11.73" height="43.03"/>
			</g>
			<g>
				<rect x="1542.02" y="705.25" class="st23" width="6.99" height="43.03"/>
			</g>
			<g>
				<path class="st21" d="M1554.29,548.34c0,2.01-3.02,3.64-6.74,3.64c-0.29,0-0.56-0.01-0.84-0.03c-3.33-0.22-5.9-1.75-5.9-3.61
					c0-1.86,2.58-3.39,5.9-3.61c0.28-0.02,0.55-0.03,0.84-0.03C1551.27,544.7,1554.29,546.33,1554.29,548.34z"/>
			</g>
			<g>
				<path class="st23" d="M1550.8,548.34c0,1.62-1.69,3.01-4.09,3.61c-3.33-0.22-5.9-1.75-5.9-3.61c0-1.86,2.58-3.39,5.9-3.61
					C1549.12,545.33,1550.8,546.72,1550.8,548.34z"/>
			</g>
			<g>
				<polygon class="st23" points="1553.73,571.77 1542,571.77 1537.87,551.85 1557.24,551.85 				"/>
			</g>
			<g>
				<rect x="1536.82" y="550.35" class="st21" width="21.46" height="1.91"/>
			</g>
			<g>
				<rect x="1536.82" y="550.35" class="st23" width="13.49" height="1.91"/>
			</g>
			<g>
				<path class="st24" d="M1543.94,705.25h7.5l-1.1-3.33c-0.1-0.29-0.37-0.49-0.68-0.49h-3.51c-0.38,0-0.72,0.23-0.87,0.58
					L1543.94,705.25z"/>
			</g>
			<g>
				<polygon class="st25" points="1539.25,552.82 1555.8,552.82 1552.56,570.72 1543.06,570.72 				"/>
			</g>
			<g>
				<polygon class="st21" points="1556.91,550.35 1538.19,550.35 1539.72,548.16 1555.46,548.16 				"/>
			</g>
			<g>
				<polygon class="st23" points="1552.3,550.35 1538.19,550.35 1539.72,548.16 1550.84,548.16 				"/>
			</g>
		</g>
		<g>
			<path class="st14" d="M1221,748.46l-118.27-0.04v-28.88c0.38,0.18,0.76,0.36,1.15,0.55c16.14,8.22,14.02,19.17,34,15.15
				c19.98-4,36.46-5.69,45.4,0c8.95,5.7,15.51,3.43,26.64,3.39C1219.15,738.61,1220.72,745.96,1221,748.46z"/>
		</g>
		<g>
			<g>
				<polygon class="st26" points="1245.54,715.38 1132.85,715.38 1127.64,688.89 1240.13,688.89 				"/>
			</g>
			<g>
				<polygon class="st27" points="1247.47,715.38 1134.78,715.38 1129.57,688.89 1242.06,688.89 				"/>
			</g>
			<g>
				<path class="st26" d="M1166.11,718.62h-30.8c-1.36,0-2.47-1.1-2.47-2.47v-0.78h33.26V718.62z"/>
			</g>
			<g>
				<rect x="1165.86" y="715.38" class="st28" width="102.35" height="3.24"/>
			</g>
			<g>
				<g>
					<path class="st28" d="M1139.58,718.62l-1.93,7.59c0,0,0,0,0,0.01l-5.71,22.47c-0.08,0.29-0.34,0.5-0.64,0.5
						c-0.58,0-1.02-0.53-0.91-1.1l5.09-26.22l0.63-3.26H1139.58z"/>
				</g>
			</g>
			<g>
				<path class="st26" d="M1137.65,726.21c0.19-3.88-2.16-4.33-2.16-4.33l0.63-3.26h3.46L1137.65,726.21z"/>
			</g>
			<g>
				<g>
					<path class="st28" d="M1164.02,718.62l-1.93,7.59c0,0,0,0,0,0.01l-5.71,22.47c-0.08,0.29-0.34,0.5-0.64,0.5
						c-0.58,0-1.02-0.53-0.91-1.1l5.1-26.22l0.63-3.26H1164.02z"/>
				</g>
			</g>
			<g>
				<path class="st26" d="M1162.09,726.21c0.19-3.88-2.16-4.33-2.16-4.33l0.63-3.26h3.46L1162.09,726.21z"/>
			</g>
			<g>
				<g>
					<path class="st28" d="M1258.88,718.62l1.93,7.59c0,0,0,0,0,0.01l5.71,22.47c0.08,0.29,0.34,0.5,0.64,0.5
						c0.58,0,1.02-0.53,0.91-1.1l-5.1-26.22l-0.63-3.26H1258.88z"/>
				</g>
			</g>
			<g>
				<path class="st26" d="M1260.8,726.21c-0.19-3.88,2.16-4.33,2.16-4.33l-0.63-3.26h-3.46L1260.8,726.21z"/>
			</g>
			<g>
				<g>
					<path class="st28" d="M1234.43,718.62l1.93,7.59c0,0,0,0,0,0.01l5.71,22.47c0.08,0.29,0.34,0.5,0.64,0.5
						c0.58,0,1.02-0.53,0.91-1.1l-5.1-26.22l-0.63-3.26H1234.43z"/>
				</g>
			</g>
			<g>
				<path class="st26" d="M1236.36,726.21c-0.18-3.88,2.16-4.33,2.16-4.33l-0.63-3.26h-3.46L1236.36,726.21z"/>
			</g>
		</g>
		<g>
			<path class="st14" d="M1172.99,562.71c-2.91,1.68-6.33,2.75-10.05,3c-16.32,1.02-21.98,7.09-35.18,19.94
				c-7.09,6.88-16.87,8.37-25.03,8.61v-87.28c2.3,1.64,4.67,3.34,7.08,4.94c8.98,6.02,18.72,10.91,29.36,8.32
				c10.71-2.61,18.97-2.45,25.45-0.36c8.26,2.6,13.67,8.26,17.54,15.2C1187.52,544.6,1182.88,557.05,1172.99,562.71z"/>
		</g>
		<g>
			<path class="st29" d="M1306.25,531.85c0-4.04,3.27-7.31,7.31-7.31c4.04,0,7.31,3.27,7.31,7.31c0,4.04-3.27,7.31-7.31,7.31
				C1309.53,539.16,1306.25,535.89,1306.25,531.85z"/>
		</g>
		<g>
			<path class="st29" d="M1426.64,525.34c0,0,6.35-10.21,21.55-9.08c0,0,22.06-17.02,45.58-2.27c0,0,25-3.66,43.52,3.16
				c12.34,4.55,16.42,9.32,16.42,9.32L1426.64,525.34z"/>
		</g>
		<g class="st30">
			<path class="st29" d="M1502.54,551.58c0,0,4.16-6.68,14.09-5.94c0,0,14.43-11.13,29.81-1.48c0,0,16.35-2.39,28.46,2.07
				c8.07,2.97,10.74,6.09,10.74,6.09L1502.54,551.58z"/>
		</g>
		<g class="st30">
			<path class="st29" d="M1192.22,546.95c0,0,4.16-6.68,14.09-5.94c0,0,14.43-11.13,29.81-1.48c0,0,16.35-2.39,28.46,2.07
				c8.08,2.97,10.74,6.09,10.74,6.09L1192.22,546.95z"/>
		</g>
		<g>
			<rect x="1102.73" y="748.28" class="st21" width="514.1" height="23.3"/>
		</g>
		<g>
			<g>
				<path class="st11" d="M1426.64,741.16c0,0-2.52-9.14,4.35-18.03c6.87-8.89,18.52-6.5,18.52-6.5s1.62,2.5-1.59,4.48
					c-3.22,1.98-14.43-1.98-17.25,17.49C1430.67,738.6,1429.32,742.62,1426.64,741.16z"/>
			</g>
			<g>
				<path class="st31" d="M1339.47,609.64c0-2.29,1.86-4.14,4.14-4.14c2.29,0,4.14,1.86,4.14,4.14c0,2.29-1.85,4.14-4.14,4.14
					C1341.32,613.78,1339.47,611.93,1339.47,609.64z"/>
			</g>
			<g>
				<path class="st21" d="M1439.77,735.73c0-3.21,2.6-5.81,5.81-5.81s5.81,2.6,5.81,5.81c0,3.21-2.6,5.81-5.81,5.81
					S1439.77,738.94,1439.77,735.73z"/>
			</g>
			<g>
				<path class="st21" d="M1310.92,731.29c0-4.91,3.98-8.9,8.9-8.9c4.91,0,8.9,3.98,8.9,8.9c0,4.92-3.98,8.9-8.9,8.9
					C1314.91,740.19,1310.92,736.21,1310.92,731.29z"/>
			</g>
			<g>
				<g>
					
						<rect x="1276.46" y="663.44" transform="matrix(0.1359 -0.9907 0.9907 0.1359 488.8956 1890.9567)" class="st32" width="103.96" height="3.55"/>
				</g>
			</g>
			<g>
				<g>
					<polygon class="st31" points="1325.07,617.04 1325.07,613.06 1343.17,609.1 1344.36,612.45 					"/>
				</g>
			</g>
			<g>
				<g>
					<path class="st33" d="M1320.11,748.18c-9.14,0-16.57-7.43-16.57-16.57c0-9.14,7.43-16.57,16.57-16.57
						c9.14,0,16.57,7.43,16.57,16.57C1336.68,740.75,1329.25,748.18,1320.11,748.18z M1320.11,718.39
						c-7.29,0-13.22,5.93-13.22,13.22c0,7.29,5.93,13.22,13.22,13.22s13.22-5.93,13.22-13.22
						C1333.33,724.32,1327.4,718.39,1320.11,718.39z"/>
				</g>
			</g>
			<g>
				<g>
					<path class="st33" d="M1445.59,747.84c-6.68,0-12.11-5.43-12.11-12.11c0-6.68,5.43-12.11,12.11-12.11
						c6.68,0,12.11,5.43,12.11,12.11C1457.7,742.41,1452.26,747.84,1445.59,747.84z M1445.59,726.28c-5.21,0-9.45,4.24-9.45,9.45
						c0,5.21,4.24,9.44,9.45,9.44s9.45-4.24,9.45-9.44C1455.03,730.52,1450.8,726.28,1445.59,726.28z"/>
				</g>
			</g>
			<g>
				<path class="st32" d="M1427.72,742.67h-82.24c-1.47,0-2.67-1.2-2.67-2.67v-1.28c0-1.47,1.2-2.67,2.67-2.67h82.24
					c1.47,0,2.67,1.2,2.67,2.67V740C1430.39,741.47,1429.18,742.67,1427.72,742.67z"/>
			</g>
			<g>
				<g>
					<path class="st32" d="M1428.67,742.71c-0.56,0-1.08-0.35-1.26-0.91c-0.23-0.7,0.14-1.45,0.84-1.68l16.91-5.64
						c0.7-0.23,1.45,0.14,1.68,0.84c0.23,0.7-0.14,1.45-0.84,1.68l-16.91,5.64C1428.96,742.68,1428.81,742.71,1428.67,742.71z"/>
				</g>
			</g>
			<g>
				<polygon class="st32" points="1324.7,690.84 1353.04,736.19 1360.24,736.19 1326.2,682.41 				"/>
			</g>
			<g>
				<path class="st33" d="M1326.31,717.06l-2.6-0.79l-2.71,8.91c-0.9,2.95-3.74,4.88-6.81,4.62l-8.61-0.73l-0.23,2.71l8.63,0.73
					c3.58,0.3,6.81,2.25,8.74,5.28l4.57,7.15l2.29-1.46l-4.41-6.91c-2.06-3.23-2.61-7.19-1.49-10.85L1326.31,717.06z"/>
			</g>
			<g>
				<path class="st33" d="M1449.49,726.45l-1.69-0.51l-1.76,5.79c-0.58,1.92-2.43,3.17-4.43,3l-5.59-0.47l-0.15,1.76l5.61,0.47
					c2.32,0.2,4.42,1.46,5.68,3.43l2.97,4.65l1.49-0.95l-2.87-4.49c-1.34-2.1-1.69-4.67-0.97-7.05L1449.49,726.45z"/>
			</g>
			<g>
				<path class="st11" d="M1444.01,735.51c0-0.74,0.6-1.33,1.33-1.33c0.73,0,1.33,0.6,1.33,1.33c0,0.74-0.6,1.33-1.33,1.33
					C1444.61,736.84,1444.01,736.25,1444.01,735.51z"/>
			</g>
			<g>
				<path class="st11" d="M1318.49,731.29c0-0.74,0.6-1.33,1.33-1.33c0.74,0,1.33,0.6,1.33,1.33c0,0.74-0.6,1.33-1.33,1.33
					C1319.09,732.62,1318.49,732.03,1318.49,731.29z"/>
			</g>
			<g>
				<path class="st11" d="M1309.67,714.12c0,0,7.77-5.44,18.44-1.94c10.68,3.5,12.33,15.27,12.33,15.27s-1.81,2.37-4.76,0
					c-2.94-2.37-2.96-14.26-22.26-10.4C1313.43,717.05,1309.18,717.13,1309.67,714.12z"/>
			</g>
			<g>
				<path class="st34" d="M1383.49,510.64c0,0-13.41,21.56-13.41,27.42c0,5.85,4.27,12.58,4.27,12.58l13.57-11.27l6.75-12.11
					L1383.49,510.64z"/>
			</g>
			<g>
				<path class="st35" d="M1394.09,542.27c0,0-4.53,8.16-12.62,6.71c0,0-2.38-3.59-2.97-6.47c-0.07-0.35-0.14-0.7-0.21-1.02
					c-0.68-3.24-1.14-5.04-1.14-5.04s0,0,0.01,0c0.31-0.21,10.56-6.97,10.63-6.59C1389.3,538.66,1394.09,542.27,1394.09,542.27z"/>
			</g>
			<g>
				<path class="st36" d="M1373.62,536.94c0,0,12.44,4.17,14.92-3.62c2.47-7.79,5.75-12.5-2.09-15.49
					c-7.84-2.99-10.33-0.51-11.79,1.89C1373.19,522.12,1370.44,535.66,1373.62,536.94z"/>
			</g>
			<g>
				<path class="st37" d="M1359.5,736.18h20.5c0.2-0.04,0.35-0.08,0.44-0.13c1.37-0.69,0.94-5.93,0.78-7.54
					c-0.03-0.3-0.05-0.48-0.05-0.48s-7.21-5.76-8.2-1.35c-0.03,0.14-0.07,0.27-0.11,0.41v0c-1.25,4.13-6.85,6.01-10.08,6.53
					C1360.31,734.03,1359.67,735.46,1359.5,736.18z"/>
			</g>
			<g>
				<path class="st37" d="M1399.64,736.18h20.5c0.2-0.04,0.34-0.08,0.44-0.13c1.37-0.69,0.94-5.93,0.78-7.54
					c-0.03-0.3-0.05-0.48-0.05-0.48s-7.21-5.76-8.2-1.35c-0.03,0.14-0.07,0.27-0.11,0.41v0c-1.25,4.13-6.85,6.01-10.08,6.53
					C1400.44,734.03,1399.8,735.46,1399.64,736.18z"/>
			</g>
			<g>
				<path class="st11" d="M1363.64,617.95c0,0,1.09,13.66,2.38,30.08c1.75,22.31,3.85,49.71,4.06,54.9
					c0.36,9.01,2.78,24.16,2.78,24.16s1.46,2.39,8.31,0.94c0,0,7.1-20.27,8.84-42.05c0.03-0.36,0.05-0.72,0.08-1.08
					c1.62-22.17,4.14-68.85,4.14-68.85L1363.64,617.95z"/>
			</g>
			<g>
				<path class="st31" d="M1363.64,617.95c0,0,1.09,13.66,2.38,30.08l23.98,37.95c0.03-0.36,0.05-0.72,0.08-1.08
					c1.62-22.17,4.14-68.85,4.14-68.85L1363.64,617.95z"/>
			</g>
			<g>
				<path class="st11" d="M1368.64,619.57c0,0,13.45,51.5,26.42,74.74c12.98,23.25,17.61,33.6,17.61,33.6s7.95,2.15,8.63,0.12
					c0,0-6.8-55.34-12.06-68.28c-2.73-6.7-4-27.3-4.27-33.79c-0.27-6.49-4.83-15.32-4.83-15.32L1368.64,619.57z"/>
			</g>
			<g>
				<path class="st21" d="M1364.21,639.64c24.95,12.34,52.26,8.35,52.21,7.5c-0.04-0.93-10.4-55.98-13.98-72.03
					c-3.34-14.95-7.85-28.05-12.03-31.04c-0.55-0.38-3.83,1.31-6.86,2.88c-2.79,1.45-5.61,1.66-8.28,1.17c0,0-1.36,1.8-2.16,3.76
					c-1.68,4.09-10.44,32.06-10.55,36.9c0,0.29-0.01,0.58-0.02,0.86c-0.03,1.4-0.06,2.8-0.08,4.2
					C1362.45,595.42,1363.93,639.5,1364.21,639.64z"/>
			</g>
			<g>
				<path class="st38" d="M1363.28,618.64c24.54-13.76,22.11-45.44,22.11-45.44l-22.91,20.63c-0.02,1.59-0.04,3.18-0.04,4.74
					c0,1.17,0,2.34,0.02,3.49l0,0.15c-0.03,0.43-0.02,0.89-0.01,1.32C1362.45,605.45,1363.25,616.89,1363.28,618.64z"/>
			</g>
			<g>
				<path class="st36" d="M1338.53,609.19c-1.22-2.11-0.27-3.03-0.27-3.03s20.27-14.89,21.87-16.4c1.6-1.52,9.55-26.22,9.55-26.22
					s2.78-10.01,8.61-10.94c5.06-0.81,8.46,1.79,10.65,4.77c2.6,3.56,2.72,8.37,0.36,12.09c-5.32,8.36-16.03,24.95-19.09,27.74
					c-6.82,6.22-28.81,13.71-28.81,13.71S1339.49,610.85,1338.53,609.19z"/>
			</g>
			<g>
				<path class="st39" d="M1387.9,535.45c0.16,0.13,2.82,1.22,8.96-8.63c0.96-1.54,1.84-5,0.23-8.27c-1.61-3.27-8.11-6.33-13.6-7.91
					c-5.49-1.58-7.12,1.44-8.73,4.48c-1.69,3.19-5.93,5.55-5.93,5.55c4.57,3.14,10.73-0.18,12.68,0.64
					c1.95,0.82,2.37,4.05,2.43,5.08c0.06,1.03,0.21,1.89,2.82,1.22c2.61-0.67,0.81,3.69,0.33,4.51
					C1387.09,532.13,1386.54,534.38,1387.9,535.45z"/>
			</g>
			<g>
				<path class="st21" d="M1383.49,510.64c0,0,6.86,11.73,7.08,16.74c0.22,5.01-15.29,20.74-15.29,20.74s13.3,3.49,18.78,0
					c0,0,12.66-17.63,12.66-20.85C1406.71,524.04,1399.3,510.83,1383.49,510.64z"/>
			</g>
			<g>
				<path class="st38" d="M1371.38,617.47c0,0,12.04,1.97,19.61,0.87l-0.17,12.1l-9.63,3.69l-9.8-5.44V617.47z"/>
			</g>
			<g>
				<path class="st36" d="M1338.22,606.16c0,0-7.76,0.39-9.32,1.85c-1.55,1.46-4.61,4.22-2.3,4.71l5.57-1.22
					c2.85,0.67,3.88,2.22,5.69,1.25s3.8-2.02,3.8-2.02L1338.22,606.16z"/>
			</g>
			<g>
				<path class="st11" d="M1319.62,614.5c0-2.29,1.85-4.14,4.14-4.14s4.14,1.86,4.14,4.14c0,2.29-1.85,4.14-4.14,4.14
					S1319.62,616.79,1319.62,614.5z"/>
			</g>
			<g>
				<path class="st11" d="M1431.9,585.34c-0.04,0.61-0.11,1.14-0.23,1.58c-1.63,6.22-22.67,10.92-25.03,8.67
					c-0.44-0.42-0.9-1.03-1.37-1.8c-5.99-9.85-13.59-45.73-10.6-43.6c0,0,5.59-1.75,10.19-2.18l0.81-0.06l0.03,0
					c1.45-0.09,2.76-0.01,3.68,0.33c3.91,1.45,7.04,11.67,7.04,11.67s3.22-0.46,6.1-0.11c0.35,0.04,0.7,0.1,1.04,0.17c0,0,0,0,0,0
					c0.88,0.18,1.68,0.47,2.28,0.89C1428.29,562.64,1432.32,578.6,1431.9,585.34z"/>
			</g>
			<g>
				<path class="st11" d="M1397.32,549.66c0,0-7.22-6.9-19.3-4.44l-2.75,2.89c0,0,12.13-2.92,18.81,3.46L1397.32,549.66z"/>
			</g>
			<g>
				<path class="st11" d="M1376.34,582.51c0,0,7.22,12.81,26.92,6.45l2.02,4.82c0,0-23.42,6.66-31.33-6.24L1376.34,582.51z"/>
			</g>
			<g>
				<path class="st21" d="M1378.93,550.64c0,0-5-0.57-6.85,4.09c-1.32,3.33-4.26,18.97-10.91,30.37
					c-2.66,4.57-12.81,13.49-17.04,16.73c0,0,1.54,4.95,4.85,6.27c0,0,16.01,1.62,26.53-10.35c3.01-3.4,20.9-32.55,17.21-38.57
					C1389.04,553.16,1378.93,550.64,1378.93,550.64z"/>
			</g>
			<g>
				<g>
					<path class="st31" d="M1405.7,547.93c-0.72,0.69-2.11,2.52-1.65,6.02c0.62,4.69,2.13,8.04,2.15,8.07l-0.52,0.24
						c-0.02-0.03-1.55-3.46-2.19-8.24c-0.42-3.12,0.57-5.03,1.38-6.03L1405.7,547.93z"/>
				</g>
			</g>
			<g>
				<g>
					<path class="st31" d="M1426.06,585.48l-0.55,0.17c-0.24-0.77-5.83-18.8-5.45-22.13c0.24-2.09,1.49-3.17,2.45-3.7
						c0.35,0.04,0.7,0.1,1.04,0.17c-0.67,0.21-2.62,1.04-2.92,3.6C1420.26,566.8,1426,585.29,1426.06,585.48z"/>
				</g>
			</g>
			<g>
				<path class="st31" d="M1400.96,577.54l4.97,14.1c0,0,6.89,0.21,11.1-2.67l-4.59-14.49
					C1412.44,574.47,1408.61,577.41,1400.96,577.54z"/>
			</g>
			<g>
				<path class="st31" d="M1431.9,585.34c-0.04,0.61-0.11,1.14-0.23,1.58c-1.63,6.22-22.67,10.92-25.03,8.67
					c-0.44-0.42-0.9-1.03-1.37-1.8C1405.46,593.77,1417.41,593.36,1431.9,585.34z"/>
			</g>
			<g>
				<path class="st40" d="M1400.96,577.54l1.46,4.14l6.58,0.45l4.72-3.62l-1.28-4.04C1412.44,574.47,1405.03,576,1400.96,577.54z"/>
			</g>
			<g>
				<path class="st32" d="M1408.01,580.88c0-0.23,0.19-0.41,0.41-0.41c0.23,0,0.41,0.18,0.41,0.41s-0.18,0.41-0.41,0.41
					C1408.19,581.3,1408.01,581.11,1408.01,580.88z"/>
			</g>
		</g>
		<g>
			<rect x="1139.43" y="820.67" class="st21" width="616.64" height="15.51"/>
		</g>
		<g>
			<rect x="1139.43" y="851.97" class="st21" width="616.64" height="15.5"/>
		</g>
		<g>
			<rect x="1414.15" y="883.27" class="st21" width="341.92" height="15.5"/>
		</g>
		<g>
			<rect x="1344.24" y="914.56" class="st21" width="265.17" height="15.51"/>
		</g>
		<g>
			<rect x="1414.15" y="945.86" class="st21" width="341.92" height="15.51"/>
		</g>
		<g>
			<rect x="822.58" y="695" class="st21" width="163.3" height="7.75"/>
		</g>
		<g>
			<rect x="1001.63" y="695" class="st21" width="17.97" height="17.97"/>
		</g>
		<g>
			<rect x="883.65" y="695" class="st41" width="74.92" height="7.75"/>
		</g>
		<g>
			<rect x="822.58" y="652.5" class="st21" width="163.3" height="7.74"/>
		</g>
		<g>
			<rect x="1001.63" y="652.5" class="st21" width="17.97" height="17.97"/>
		</g>
		<g>
			<rect x="843.96" y="652.5" class="st41" width="52.18" height="7.74"/>
		</g>
		<g>
			<rect x="822.58" y="610" class="st21" width="163.3" height="7.74"/>
		</g>
		<g>
			<rect x="1001.63" y="610" class="st38" width="17.97" height="17.97"/>
		</g>
		<g>
			<rect x="903.39" y="610" class="st38" width="52.18" height="7.74"/>
		</g>
		<g>
			<rect x="822.58" y="567.5" class="st21" width="163.3" height="7.74"/>
		</g>
		<g>
			<rect x="1001.63" y="567.5" class="st38" width="17.97" height="17.97"/>
		</g>
		<g>
			<rect x="843.96" y="567.5" class="st38" width="79.38" height="7.74"/>
		</g>
		<g>
			<rect x="822.58" y="525" class="st21" width="163.3" height="7.74"/>
		</g>
		<g>
			<rect x="1001.63" y="525" class="st41" width="17.97" height="17.97"/>
		</g>
		<g>
			<rect x="899.62" y="525" class="st41" width="69.6" height="7.74"/>
		</g>
		<g>
			<g>
				<rect x="896.14" y="791.62" class="st21" width="15.86" height="15.86"/>
			</g>
			<g>
				<rect x="924.48" y="791.62" class="st21" width="15.86" height="15.86"/>
			</g>
			<g>
				<rect x="951.29" y="793.66" class="st21" width="82.71" height="5.89"/>
			</g>
			<g>
				<polygon class="st21" points="872.46,789.63 885.47,799.54 872.46,807.13 				"/>
			</g>
		</g>
		<g>
			<rect x="896.14" y="821.96" class="st38" width="15.86" height="15.86"/>
		</g>
		<g>
			<rect x="924.48" y="821.96" class="st21" width="15.86" height="15.86"/>
		</g>
		<g>
			<rect x="951.29" y="824.01" class="st21" width="82.71" height="5.88"/>
		</g>
		<g>
			<polygon class="st21" points="872.46,819.98 885.47,829.89 872.46,837.48 			"/>
		</g>
		<g>
			<rect x="896.14" y="852.31" class="st41" width="15.86" height="15.86"/>
		</g>
		<g>
			<rect x="924.48" y="852.31" class="st21" width="15.86" height="15.86"/>
		</g>
		<g>
			<rect x="951.29" y="854.35" class="st21" width="82.71" height="5.88"/>
		</g>
		<g>
			<polygon class="st21" points="872.46,850.33 885.47,860.24 872.46,867.83 			"/>
		</g>
		<g>
			<rect x="896.14" y="882.66" class="st41" width="15.86" height="15.86"/>
		</g>
		<g>
			<rect x="924.48" y="882.66" class="st21" width="15.86" height="15.86"/>
		</g>
		<g>
			<rect x="951.29" y="884.7" class="st21" width="82.71" height="5.89"/>
		</g>
		<g>
			<polygon class="st21" points="872.46,880.67 885.47,890.59 872.46,898.17 			"/>
		</g>
		<g>
			<rect x="896.14" y="913" class="st38" width="15.86" height="15.86"/>
		</g>
		<g>
			<rect x="924.48" y="913" class="st21" width="15.86" height="15.86"/>
		</g>
		<g>
			<rect x="951.29" y="915.05" class="st21" width="82.71" height="5.89"/>
		</g>
		<g>
			<polygon class="st21" points="872.46,911.02 885.47,920.93 872.46,928.52 			"/>
		</g>
		<g>
			<rect x="896.14" y="943.35" class="st38" width="15.86" height="15.86"/>
		</g>
		<g>
			<rect x="924.48" y="943.35" class="st21" width="15.86" height="15.86"/>
		</g>
		<g>
			<rect x="951.29" y="945.39" class="st21" width="82.71" height="5.88"/>
		</g>
		<g>
			<polygon class="st21" points="872.46,941.37 885.47,951.28 872.46,958.87 			"/>
		</g>
		<g class="st30">
			<g>
				<path class="st17" d="M820.11,798.38c0,0,4.19-5.4,9.86-5.4c5.79,0,9.36,5.4,9.36,5.4s-3.02,5.41-9.36,5.41
					C823.28,803.79,820.11,798.38,820.11,798.38z"/>
			</g>
			<g>
				<path class="st42" d="M825.98,798.38c0-2.07,1.68-3.74,3.74-3.74s3.74,1.67,3.74,3.74c0,2.07-1.68,3.74-3.74,3.74
					S825.98,800.45,825.98,798.38z"/>
			</g>
			<g>
				<path class="st17" d="M827.43,798.38c0-1.26,1.02-2.29,2.29-2.29c1.26,0,2.29,1.02,2.29,2.29c0,1.26-1.02,2.29-2.29,2.29
					C828.46,800.67,827.43,799.64,827.43,798.38z"/>
			</g>
		</g>
		<g class="st30">
			<g>
				<path class="st17" d="M820.11,828.73c0,0,4.19-5.41,9.86-5.41c5.79,0,9.36,5.41,9.36,5.41s-3.02,5.41-9.36,5.41
					C823.28,834.13,820.11,828.73,820.11,828.73z"/>
			</g>
			<g>
				<path class="st42" d="M825.98,828.73c0-2.07,1.68-3.74,3.74-3.74s3.74,1.68,3.74,3.74c0,2.07-1.68,3.74-3.74,3.74
					S825.98,830.8,825.98,828.73z"/>
			</g>
			<g>
				<path class="st17" d="M827.43,828.73c0-1.26,1.02-2.29,2.29-2.29c1.26,0,2.29,1.02,2.29,2.29c0,1.26-1.02,2.29-2.29,2.29
					C828.46,831.01,827.43,829.99,827.43,828.73z"/>
			</g>
		</g>
		<g class="st30">
			<g>
				<path class="st17" d="M820.11,859.08c0,0,4.19-5.41,9.86-5.41c5.79,0,9.36,5.41,9.36,5.41s-3.02,5.41-9.36,5.41
					C823.28,864.48,820.11,859.08,820.11,859.08z"/>
			</g>
			<g>
				<path class="st42" d="M825.98,859.08c0-2.07,1.68-3.74,3.74-3.74s3.74,1.67,3.74,3.74c0,2.07-1.68,3.74-3.74,3.74
					S825.98,861.14,825.98,859.08z"/>
			</g>
			<g>
				<path class="st17" d="M827.43,859.08c0-1.26,1.02-2.29,2.29-2.29c1.26,0,2.29,1.02,2.29,2.29c0,1.26-1.02,2.28-2.29,2.28
					C828.46,861.36,827.43,860.34,827.43,859.08z"/>
			</g>
		</g>
		<g class="st30">
			<g>
				<path class="st17" d="M820.11,889.42c0,0,4.19-5.41,9.86-5.41c5.79,0,9.36,5.41,9.36,5.41s-3.02,5.41-9.36,5.41
					C823.28,894.83,820.11,889.42,820.11,889.42z"/>
			</g>
			<g>
				<path class="st42" d="M825.98,889.42c0-2.07,1.68-3.74,3.74-3.74s3.74,1.67,3.74,3.74c0,2.07-1.68,3.74-3.74,3.74
					S825.98,891.49,825.98,889.42z"/>
			</g>
			<g>
				<path class="st17" d="M827.43,889.42c0-1.26,1.02-2.29,2.29-2.29c1.26,0,2.29,1.02,2.29,2.29c0,1.26-1.02,2.29-2.29,2.29
					C828.46,891.71,827.43,890.69,827.43,889.42z"/>
			</g>
		</g>
		<g class="st30">
			<g>
				<path class="st17" d="M820.11,919.77c0,0,4.19-5.4,9.86-5.4c5.79,0,9.36,5.4,9.36,5.4s-3.02,5.41-9.36,5.41
					C823.28,925.17,820.11,919.77,820.11,919.77z"/>
			</g>
			<g>
				<path class="st42" d="M825.98,919.77c0-2.07,1.68-3.74,3.74-3.74s3.74,1.67,3.74,3.74c0,2.07-1.68,3.74-3.74,3.74
					S825.98,921.84,825.98,919.77z"/>
			</g>
			<g>
				<path class="st17" d="M827.43,919.77c0-1.26,1.02-2.29,2.29-2.29c1.26,0,2.29,1.02,2.29,2.29c0,1.26-1.02,2.29-2.29,2.29
					C828.46,922.06,827.43,921.03,827.43,919.77z"/>
			</g>
		</g>
		<g class="st30">
			<g>
				<path class="st17" d="M820.11,950.12c0,0,4.19-5.41,9.86-5.41c5.79,0,9.36,5.41,9.36,5.41s-3.02,5.41-9.36,5.41
					C823.28,955.52,820.11,950.12,820.11,950.12z"/>
			</g>
			<g>
				<path class="st42" d="M825.98,950.12c0-2.07,1.68-3.74,3.74-3.74s3.74,1.67,3.74,3.74c0,2.07-1.68,3.74-3.74,3.74
					S825.98,952.18,825.98,950.12z"/>
			</g>
			<g>
				<path class="st17" d="M827.43,950.12c0-1.26,1.02-2.29,2.29-2.29c1.26,0,2.29,1.02,2.29,2.29c0,1.26-1.02,2.29-2.29,2.29
					C828.46,952.4,827.43,951.38,827.43,950.12z"/>
			</g>
		</g>
		<g>
			<rect x="1521.12" y="914.56" class="st11" width="234.95" height="15.51"/>
		</g>
		<g>
			<rect x="1562.64" y="883.27" class="st11" width="136.51" height="15.5"/>
		</g>
		<g>
			<rect x="1547.55" y="820.67" class="st11" width="157.98" height="15.51"/>
		</g>
		<g>
			<rect x="1595.59" y="851.97" class="st38" width="136.51" height="15.5"/>
		</g>
		<g>
			<g>
				<path class="st42" d="M1220.86,591.29c-32.28-41.24-68.2-42.69-68.56-42.7l0.03-0.93c0.36,0.01,36.72,1.47,69.27,43.05
					L1220.86,591.29z"/>
			</g>
			<g>
				<path class="st41" d="M1148.13,548.12c0-2.12,1.72-3.83,3.83-3.83s3.83,1.72,3.83,3.83c0,2.12-1.72,3.83-3.83,3.83
					S1148.13,550.24,1148.13,548.12z"/>
			</g>
			<g>
				<path class="st41" d="M1217.39,590.61c0-2.12,1.72-3.83,3.83-3.83c2.12,0,3.83,1.72,3.83,3.83c0,2.12-1.72,3.83-3.83,3.83
					C1219.11,594.45,1217.39,592.73,1217.39,590.61z"/>
			</g>
		</g>
		<g>
			<g>
				<path class="st42" d="M1230.52,540.15l-0.71-0.6c0.24-0.28,24.24-27.68,76.98-26.94l-0.01,0.93
					C1254.42,512.82,1230.75,539.88,1230.52,540.15z"/>
			</g>
			<g>
				<path class="st41" d="M1227.54,543.11c-1.65-1.33-1.91-3.74-0.58-5.39c1.33-1.65,3.74-1.91,5.39-0.58
					c1.65,1.33,1.91,3.74,0.58,5.39C1231.6,544.18,1229.19,544.44,1227.54,543.11z"/>
			</g>
			<g>
				<path class="st41" d="M1304.08,515.81c-1.65-1.33-1.91-3.74-0.58-5.39c1.33-1.65,3.74-1.91,5.39-0.58
					c1.65,1.33,1.91,3.74,0.58,5.39C1308.14,516.88,1305.73,517.14,1304.08,515.81z"/>
			</g>
		</g>
		<g>
			<g>
				<path class="st42" d="M1475.05,540.05l-0.84-0.72c0.27-0.31,27.39-31.06,90.85-26.98l-0.07,1.1
					C1502.07,509.42,1475.31,539.74,1475.05,540.05z"/>
			</g>
			<g>
				<path class="st41" d="M1471.68,543.36c-2.06-1.66-2.52-4.51-1.03-6.37c1.49-1.86,4.38-2.01,6.44-0.35
					c2.06,1.66,2.52,4.51,1.03,6.37C1476.62,544.86,1473.74,545.02,1471.68,543.36z"/>
			</g>
			<g>
				<path class="st41" d="M1561.95,515.96c-2.06-1.66-2.52-4.51-1.03-6.37c1.5-1.86,4.38-2.01,6.44-0.35
					c2.06,1.66,2.52,4.51,1.03,6.37C1566.89,517.46,1564.01,517.62,1561.95,515.96z"/>
			</g>
		</g>
		<g>
			<rect x="1366.04" y="554.42" class="st42" width="64.43" height="0.93"/>
		</g>
		<g>
			<path class="st43" d="M1362.2,554.88c0-2.12,1.72-3.83,3.83-3.83s3.83,1.72,3.83,3.83c0,2.12-1.72,3.84-3.83,3.84
				S1362.2,557,1362.2,554.88z"/>
		</g>
		<g>
			<path class="st43" d="M1426.64,554.88c0-2.12,1.72-3.83,3.83-3.83c2.12,0,3.83,1.72,3.83,3.83c0,2.12-1.72,3.84-3.83,3.84
				C1428.35,558.72,1426.64,557,1426.64,554.88z"/>
		</g>
		<g>
			<g>
				
					<rect x="1494.35" y="802" transform="matrix(0.7072 0.7071 -0.7071 0.7072 1009.3032 -823.6505)" class="st41" width="9.29" height="9.29"/>
			</g>
		</g>
		<g>
			<path class="st42" d="M1329.77,671.48c-36.68,0-75.38-6.44-106.75-13.5c-56.89-12.79-102.63-30.3-103.09-30.48l0.33-0.87
				c0.45,0.18,46.14,17.66,102.97,30.44c52.41,11.79,125.29,21.86,174.85,2.94c49.76-19,102.45-16.25,137.88-10.61
				c38.38,6.12,65.36,16.87,65.63,16.98l-0.35,0.86c-0.27-0.11-27.17-10.83-65.45-16.93c-35.32-5.63-87.81-8.36-137.38,10.56
				C1378.37,668.55,1354.53,671.48,1329.77,671.48z"/>
		</g>
		<g>
			<path class="st44" d="M1404.9,657.04c0-2.12,1.72-3.83,3.83-3.83c2.12,0,3.83,1.72,3.83,3.83c0,2.12-1.72,3.83-3.83,3.83
				C1406.62,660.88,1404.9,659.16,1404.9,657.04z"/>
		</g>
		<g>
			<path class="st44" d="M1298.59,670.52c0-2.12,1.72-3.83,3.83-3.83c2.12,0,3.83,1.72,3.83,3.83s-1.72,3.83-3.83,3.83
				C1300.3,674.35,1298.59,672.64,1298.59,670.52z"/>
		</g>
		<g>
			<g>
				<path class="st42" d="M1323.23,764.38c-7.91,0-16.75-1.36-25.57-5.42l0.39-0.84c26.43,12.15,53.04-0.21,53.3-0.33l0.4,0.84
					C1351.56,758.71,1339.35,764.38,1323.23,764.38z"/>
			</g>
			<g>
				<path class="st41" d="M1353.95,761.18c-1.65,1.33-4.06,1.07-5.39-0.57c-1.33-1.65-1.07-4.06,0.57-5.39
					c1.65-1.33,4.06-1.08,5.39,0.57C1355.86,757.44,1355.6,759.85,1353.95,761.18z"/>
			</g>
			<g>
				<path class="st41" d="M1300.26,761.52c-1.65,1.33-4.06,1.07-5.39-0.57c-1.33-1.65-1.08-4.06,0.57-5.39
					c1.65-1.33,4.06-1.08,5.39,0.57C1302.16,757.77,1301.9,760.19,1300.26,761.52z"/>
			</g>
		</g>
		<g>
			<g>
				<path class="st42" d="M1449.93,764.38c-7.91,0-16.75-1.36-25.57-5.42l0.39-0.84c26.43,12.15,53.04-0.21,53.3-0.33l0.4,0.84
					C1478.27,758.71,1466.05,764.38,1449.93,764.38z"/>
			</g>
			<g>
				<path class="st41" d="M1480.66,761.18c-1.65,1.33-4.06,1.07-5.39-0.57c-1.33-1.65-1.07-4.06,0.57-5.39
					c1.65-1.33,4.06-1.08,5.39,0.57C1482.56,757.44,1482.31,759.85,1480.66,761.18z"/>
			</g>
			<g>
				<path class="st41" d="M1426.96,761.52c-1.65,1.33-4.06,1.07-5.39-0.57c-1.33-1.65-1.07-4.06,0.57-5.39
					c1.65-1.33,4.06-1.08,5.39,0.57C1428.86,757.77,1428.61,760.19,1426.96,761.52z"/>
			</g>
		</g>
		<g class="st45">
			<path class="st21" d="M1616.83,623.09v131.28l-46.93-6.09c0,0-4.19-27.67,15.75-36.46
				C1604.2,703.66,1591.72,632.46,1616.83,623.09z"/>
		</g>
		<g>
			<path class="st41" d="M1595.32,666.82c0-2.12,1.72-3.83,3.83-3.83s3.83,1.72,3.83,3.83c0,2.12-1.72,3.83-3.83,3.83
				S1595.32,668.94,1595.32,666.82z"/>
		</g>
		<g>
			<path class="st41" d="M1117.21,627.07c0-2.12,1.72-3.83,3.83-3.83c2.12,0,3.83,1.72,3.83,3.83c0,2.12-1.72,3.83-3.83,3.83
				C1118.93,630.91,1117.21,629.19,1117.21,627.07z"/>
		</g>
	</g>
	<g class="st16">
		<rect x="1659.48" y="490.49" class="st17" width="247.56" height="281.1"/>
	</g>
	<g>
		<g>
			<g>
				<rect x="1681.02" y="507.41" class="st21" width="120.84" height="3.45"/>
			</g>
			<g>
				<rect x="1681.02" y="515.99" class="st21" width="93.5" height="3.45"/>
			</g>
		</g>
		<g>
			<rect x="1865.5" y="509.41" class="st21" width="6.54" height="6.54"/>
		</g>
		<g>
			<g>
				<rect x="1681.02" y="545.54" class="st21" width="120.84" height="3.45"/>
			</g>
			<g>
				<rect x="1681.02" y="554.12" class="st21" width="93.5" height="3.45"/>
			</g>
		</g>
		<g>
			<rect x="1865.5" y="547.54" class="st21" width="6.54" height="6.54"/>
		</g>
		<g>
			<g>
				<rect x="1681.02" y="583.67" class="st21" width="120.84" height="3.45"/>
			</g>
			<g>
				<rect x="1681.02" y="592.25" class="st21" width="93.5" height="3.45"/>
			</g>
		</g>
		<g>
			<rect x="1865.5" y="585.67" class="st21" width="6.54" height="6.54"/>
		</g>
		<g>
			<g>
				<rect x="1681.02" y="621.8" class="st21" width="120.84" height="3.45"/>
			</g>
			<g>
				<rect x="1681.02" y="630.38" class="st21" width="93.5" height="3.45"/>
			</g>
		</g>
		<g>
			<rect x="1865.5" y="623.8" class="st21" width="6.54" height="6.54"/>
		</g>
		<g>
			<g>
				<rect x="1681.02" y="659.93" class="st21" width="120.84" height="3.45"/>
			</g>
			<g>
				<rect x="1681.02" y="668.51" class="st21" width="93.5" height="3.45"/>
			</g>
		</g>
		<g>
			<rect x="1865.5" y="661.93" class="st21" width="6.54" height="6.54"/>
		</g>
		<g>
			<rect x="1865.5" y="696.51" class="st21" width="6.54" height="6.54"/>
		</g>
		<g>
			<g>
				<rect x="1681.02" y="698.06" class="st21" width="120.84" height="3.45"/>
			</g>
			<g>
				<rect x="1681.02" y="706.64" class="st21" width="93.5" height="3.45"/>
			</g>
		</g>
		<g>
			<g>
				<rect x="1681.02" y="736.19" class="st21" width="120.84" height="3.45"/>
			</g>
			<g>
				<rect x="1681.02" y="744.77" class="st21" width="93.5" height="3.45"/>
			</g>
		</g>
		<g>
			<rect x="1865.5" y="738.19" class="st21" width="6.54" height="6.54"/>
		</g>
	</g>
	<g>
		<g>
			<g>
				<path class="st46" d="M1764.23,1332.64c0,0-17.28,42.7-11.19,47.16c6.09,4.46,26.99-13.68,32.53-32.82
					C1791.12,1327.84,1764.23,1332.64,1764.23,1332.64z"/>
			</g>
			<g>
				<path class="st36" d="M2117.31,1620.7c-76.45-0.01-156.26-0.01-231.69-0.03c-2.91-7.02-6-14.39-9.22-21.89
					c-20.92-48.73-47.17-103.59-61.78-110.12c-26.88-12.01-43.06-1.5-76.51-40.54c-33.45-39.04-54.72-52.31-41.58-61.33
					c13.14-9,56.52,24.85,68.55,23.39c9.66-1.18,14.69-24.59,13.9-49.32c-0.2-6.47-0.81-13.02-1.84-19.29v-0.01
					c-0.51-3.17-1.14-6.25-1.86-9.21c-1.15-4.64-2.56-8.98-4.25-12.84c-3.29-7.5-2.99-12.65-0.49-16.09
					c7.5-10.33,34.92-5.35,45.27-2.9c4.62,1.1,18.91-7.56,28.92-2.63c15.53,7.65,24.58-1.18,34.89,5.46
					c7.29,4.69,22.31,6.89,27.48,13.66c9.85,12.88,12.28,40.14,21.88,65.33c8.88,23.31,11.97,47.77,42.43,89.06
					c13.57,18.39,55.59,61.07,98.02,102.75C2085.87,1590.32,2102.38,1606.33,2117.31,1620.7z"/>
			</g>
			<g>
				<path class="st36" d="M1770.34,1303.37c0,0-63.78,52.22-55.5,59.23c8.29,7.01,29.31,0.12,63.72-21.92
					C1812.98,1318.62,1770.34,1303.37,1770.34,1303.37z"/>
			</g>
		</g>
		<g>
			<path class="st5" d="M2136.42,1620.7h-19.12c-76.45-0.01-156.26-0.01-231.69-0.03h-22.54l-2.62-5.42c0,0,5.31-7.19,15.93-16.47
				c27.87-24.38,92.27-63.22,193.03-24.62c4.48,1.72,9.03,3.58,13.66,5.62L2136.42,1620.7z"/>
		</g>
	</g>
	<g>
		<g>
			<g>
				<path class="st46" d="M1094.03,1359.31c0,0,11.07,44.71,4.41,48.26c-6.66,3.55-24.79-17.35-27.57-37.09
					C1068.08,1350.75,1094.03,1359.31,1094.03,1359.31z"/>
			</g>
			<g>
				<path class="st36" d="M1103.57,1477.33c-38.63,33.91-53.17,21.23-81.47,29.32c-15.38,4.4-49.12,55-76.72,100.29
					c-2.36,3.87-4.67,7.71-6.93,11.47c-91.12-0.33-182.43-0.65-266.55-0.96c22.8-16.27,54.38-38.99,85.85-62.16
					c47.9-35.27,95.55-71.59,111.59-87.89c35.99-36.56,42.5-60.33,54.59-82.17c12.88-23.27,12.5-50.65,30.29-50.38
					c8.77,0.13,16.5-11.31,24.59-15.02c11.14-5.1,21.79,6.25,38.25,0.88c10.61-3.46,25.15,5.91,29.87,5.47
					c9.09-0.83,31.08-4.2,41.04,0.94c5.53,2.84,7.35,8.29,1.2,18.24c-2.22,3.58-4.23,7.68-6.02,12.11
					c-1.01,2.51-1.96,5.12-2.83,7.82c-2.05,6.37-3.7,13.14-4.88,19.87c-4.28,24.37-2.6,48.26,6.8,50.79
					c11.7,3.15,60.13-29.35,71.87-18.57C1165.84,1428.16,1142.2,1443.42,1103.57,1477.33z"/>
			</g>
			<g>
				<path class="st36" d="M1086.95,1326.82c0,0,96.32,28.7,91.32,38.32c-5.01,9.63-55.42,7.98-95.62,0.63
					C1042.45,1358.42,1086.95,1326.82,1086.95,1326.82z"/>
			</g>
		</g>
		<g>
			<path class="st5" d="M954.35,1618.47c-5.3-0.02-10.6-0.04-15.9-0.06c-91.12-0.33-182.43-0.65-266.55-0.96
				c-10.89-0.04-21.65-0.08-32.28-0.11l103.83-58.42c4.87-1.36,9.62-2.56,14.3-3.62c105.23-23.99,163.5,23.58,187.64,51.65
				C949.22,1611.39,952.19,1615.36,954.35,1618.47z"/>
		</g>
	</g>
	<g>
		<g>
			<path class="st5" d="M1447.7,1546.48c0,0.62,0.04,1.24,0.11,1.83c0.23,1.93,0.83,3.74,1.71,5.37c0.69,1.27,1.57,2.43,2.58,3.45
				c2.73,2.73,6.49,4.41,10.65,4.41h211.81c8.32,0,15.06-6.74,15.06-15.06c0-4.16-1.68-7.93-4.41-10.65
				c-2.73-2.73-6.49-4.41-10.65-4.41h-211.81C1454.45,1531.42,1447.7,1538.16,1447.7,1546.48z"/>
		</g>
		<g>
			<path class="st5" d="M1463.86,1528.7h72.62c1.27,0,2.31-1.04,2.31-2.31l0,0c0-1.27-1.04-2.31-2.31-2.31h-72.62
				c-1.27,0-2.31,1.04-2.31,2.31l0,0C1461.55,1527.65,1462.59,1528.7,1463.86,1528.7z"/>
		</g>
		<g>
			
				<rect x="1467.87" y="1528.7" transform="matrix(-1 -1.224647e-16 1.224647e-16 -1 2943.6143 3060.1162)" class="st39" width="7.87" height="2.73"/>
		</g>
		<g>
			<path class="st39" d="M1449.53,1553.69c0.69,1.27,1.57,2.43,2.58,3.45c2.73,2.73,6.49,4.41,10.65,4.41h44.87v-7.86H1449.53z"/>
		</g>
		<g>
			<path class="st11" d="M1717.68,1542.07v8.82c0,0.97-0.13,1.91-0.37,2.79c-1.22,4.53-5.36,7.86-10.28,7.86h-220.64
				c-4.92,0-9.05-3.33-10.28-7.86c-0.24-0.89-0.37-1.83-0.37-2.79v-8.82c0-5.88,4.76-10.65,10.65-10.65h220.64
				C1712.91,1531.42,1717.68,1536.19,1717.68,1542.07z"/>
		</g>
		<g>
			<path class="st40" d="M1717.31,1553.69c-1.22,4.53-5.36,7.86-10.28,7.86h-220.64c-4.92,0-9.05-3.33-10.28-7.86H1717.31z"/>
		</g>
		<g>
			<g>
				<path class="st9" d="M1695.76,1546.54c0,4.68,1.7,8.86,4.38,11.63c0.06,0.06,0.12,0.12,0.18,0.18c2.07,2.06,4.7,3.3,7.56,3.3
					c4.47,0,15.54-6.74,22.4-11.21c3.42-2.23,5.79-3.9,5.79-3.9s-2.38-1.67-5.79-3.9c-6.86-4.48-17.93-11.22-22.4-11.22
					c-1.29,0-2.54,0.25-3.71,0.72c-1.97,0.79-3.72,2.19-5.11,4.03c-1.53,2.01-2.61,4.55-3.07,7.37c0,0.03-0.01,0.06-0.01,0.1
					C1695.84,1544.57,1695.76,1545.54,1695.76,1546.54z"/>
			</g>
			<g>
				<path class="st47" d="M1695.76,1546.54c0,4.68,1.7,8.86,4.38,11.63l33.96-11.68l-38.12-2.85
					C1695.84,1544.57,1695.76,1545.54,1695.76,1546.54z"/>
			</g>
			<g>
				<path class="st48" d="M1699.07,1536.17l33.88,9.25l-28.77-13.28C1702.21,1532.93,1700.45,1534.33,1699.07,1536.17z"/>
			</g>
			<g>
				<path class="st49" d="M1728.07,1546.54c0,1.8,0.92,3.33,2.21,3.9c3.42-2.23,5.79-3.9,5.79-3.9s-2.38-1.67-5.79-3.9
					C1728.99,1543.2,1728.07,1544.73,1728.07,1546.54z"/>
			</g>
		</g>
	</g>
	<g>
		<g>
			<path class="st31" d="M386.53,1506.68c8.86,0.02,18.09-1,27.52-3.15c35.72-8.14,73.86-32.39,101.85-77.09
				c0,0-5.86-30.02-22.7-53.54l-0.01,0c-11.68-16.31-31.87-35.66-55.96-35.79c-15.52-0.08-26.5,5.57-35.08,12.91
				c-14.6,12.47-22.29,29.84-33.61,32.35c-11.16,2.47-23.23,8.43-33.42,16.92c-1.67,1.39-3.29,2.84-4.84,4.37l-0.01,0.01
				c-0.65,0.63-1.28,1.26-1.91,1.92c-0.02,0.01-0.03,0.03-0.04,0.04c-13.71,14.38-21.79,33.94-14.94,55.51
				c1.58,5,4.04,10.19,7.58,15.53C333.54,1495.74,357.98,1506.63,386.53,1506.68z"/>
		</g>
		<g>
			<path class="st50" d="M425.65,1349.63c0,0,20.89-7.3,30.75,5.33c9.86,12.64-3.43,20.46-14.57,18.45
				C430.69,1371.39,415.21,1356.53,425.65,1349.63z"/>
		</g>
		<g>
			<path class="st51" d="M313.38,1461.15c1.58,5,4.55,9.9,7.58,15.54c21.42,39.83,51.4,56.56,74.18,62.03
				c25.18,6.04,72.33-4.17,91.07-16.28c30.78-19.88,40.16-55.29,29.67-96c0,0-5.86-30.02-22.7-53.53l-0.01,0
				c0,0-13.4,68.87-91.9,91.61C365.63,1474.84,335.58,1469.77,313.38,1461.15z"/>
		</g>
		<g>
			<g>
				<path class="st14" d="M343.8,1362.5c0.4-12.53,13.86-16.85,24.84-24.85c10.99-7.99,24.02-28.56,24.02-28.56
					s-17.54,0.67-38.44,6.79C333.31,1321.99,343.8,1362.5,343.8,1362.5z"/>
			</g>
			<g>
				<path class="st15" d="M343.8,1362.5c-1.55-13,4.52-31.34,12.59-37.02c8.07-5.68,36.26-16.38,36.26-16.38s-17.54,0.67-38.44,6.79
					C333.31,1321.99,343.8,1362.5,343.8,1362.5z"/>
			</g>
		</g>
		<g>
			<path class="st51" d="M368.54,1382.39c-11.16,2.47-23.23,8.43-33.42,16.92c18.38-13.78,47.74-9.09,49.48-17.67
				c1.85-9.21,16.97-30.79,17.55-31.61C387.54,1362.5,379.85,1379.88,368.54,1382.39z"/>
		</g>
		<g>
			<path class="st52" d="M328.37,1405.6c0.53-0.47,1.16-1.1,1.91-1.92C329.62,1404.32,328.99,1404.95,328.37,1405.6z"/>
		</g>
		<g>
			<g>
				<path class="st15" d="M383.31,1382.63L383.31,1382.63c-9.12-14.02-27.06-21.07-40.5-24.5c-10.7-2.74-26.19-4.78-33.62-5.66
					c-1.57-0.19-2.56,1.63-1.56,2.86l2.64,3.24c2.65,3.25,6.57,5.19,10.76,5.3c12.88,0.32,41.8,2.92,56.41,19.42
					C379.09,1385.14,384.95,1385.13,383.31,1382.63z"/>
			</g>
		</g>
	</g>
	<g>
		<g>
			<g>
				
					<rect x="553.51" y="1111.02" transform="matrix(0.9873 -0.1586 0.1586 0.9873 -183.1908 104.1815)" class="st53" width="15.04" height="177.27"/>
			</g>
			<g>
				<polygon class="st54" points="542.03,1081.33 539.55,1113.34 554.4,1110.95 				"/>
			</g>
		</g>
		<g>
			<g>
				
					<rect x="684.19" y="1125.61" transform="matrix(0.9832 0.1826 -0.1826 0.9832 233.4117 -105.9117)" class="st53" width="15.04" height="177.27"/>
			</g>
			<g>
				<polygon class="st54" points="713.6,1096.42 700.5,1125.73 715.29,1128.48 				"/>
			</g>
		</g>
		<g>
			<g>
				
					<rect x="665.44" y="1074.49" transform="matrix(0.9832 0.1827 -0.1827 0.9832 223.7819 -103.3552)" class="st53" width="15.04" height="177.27"/>
			</g>
			<g>
				<polygon class="st54" points="694.85,1045.3 681.75,1074.61 696.54,1077.36 				"/>
			</g>
		</g>
		<g>
			<g>
				<rect x="595.23" y="1184.85" class="st31" width="118.47" height="170.73"/>
			</g>
			<g>
				<rect x="536" y="1184.85" class="st11" width="118.47" height="170.73"/>
			</g>
		</g>
	</g>
	<g>
		
			<rect x="1744.04" y="1086.13" transform="matrix(0.9824 0.1868 -0.1868 0.9824 246.9202 -318.9298)" class="st14" width="143.23" height="129.05"/>
	</g>
	<g>
		
			<rect x="1744.04" y="1097.68" transform="matrix(0.9824 0.1868 -0.1868 0.9824 238.7697 -319.7085)" class="st15" width="143.23" height="18.59"/>
	</g>
	<g>
		<g>
			
				<rect x="824.52" y="1069.08" transform="matrix(0.9725 -0.2328 0.2328 0.9725 -239.2819 239.7672)" class="st9" width="143.23" height="129.05"/>
		</g>
		<g>
			
				<rect x="812.81" y="1070.46" transform="matrix(0.9725 -0.2328 0.2328 0.9725 -228.1968 235.6804)" class="st47" width="143.23" height="28.38"/>
		</g>
	</g>
	<g>
		<g>
			
				<rect x="1844.14" y="988.09" transform="matrix(0.985 -0.1725 0.1725 0.985 -152.8598 346.2502)" class="st55" width="143.23" height="129.05"/>
		</g>
		<g>
			
				<rect x="1835.45" y="988.85" transform="matrix(0.985 -0.1725 0.1725 0.985 -144.435 344.0028)" class="st56" width="143.23" height="28.38"/>
		</g>
	</g>
</g>
</svg>
